SplineFontDB: 3.2
FontName: ControllerButtons
FullName: Controller  Buttons
FamilyName: Controller  Buttons
Weight: Book
Copyright: (c) Copyright Bethesda Softworks LLC.(c) 2010. All Rights Reserved, FFDec v.11.2.0.
Version: 1.0
ItalicAngle: 10
UnderlinePosition: -30
UnderlineWidth: 60
Ascent: 819
Descent: 205
InvalidEm: 0
sfntRevision: 0x00010000
LayerCount: 2
Layer: 0 1 "Back" 1
Layer: 1 1 "Fore" 0
XUID: [1021 473 -2083269771 6540]
StyleMap: 0x0040
FSType: 0
OS2Version: 2
OS2_WeightWidthSlopeOnly: 0
OS2_UseTypoMetrics: 0
CreationTime: 1570245179
ModificationTime: 1572564297
PfmFamily: 81
TTFWeight: 400
TTFWidth: 5
LineGap: 170
VLineGap: 0
Panose: 0 0 0 0 0 0 0 0 0 0
OS2TypoAscent: 858
OS2TypoAOffset: 0
OS2TypoDescent: -171
OS2TypoDOffset: 0
OS2TypoLinegap: 170
OS2WinAscent: 858
OS2WinAOffset: 0
OS2WinDescent: 363
OS2WinDOffset: 0
HheadAscent: 858
HheadAOffset: 0
HheadDescent: -363
HheadDOffset: 0
OS2SubXSize: 128
OS2SubYSize: 128
OS2SubXOff: 0
OS2SubYOff: -64
OS2SupXSize: 128
OS2SupYSize: 128
OS2SupXOff: 0
OS2SupYOff: 64
OS2StrikeYSize: 51
OS2StrikeYPos: 512
OS2CapHeight: 858
OS2XHeight: 424
OS2FamilyClass: 2048
OS2Vendor: 'dtyp'
OS2CodePages: 00000001.00000000
OS2UnicodeRanges: 00000003.00000000.00000000.00000000
DEI: 91125
ShortTable: maxp 16
  1
  0
  56
  445
  22
  0
  0
  2
  128
  64
  128
  128
  128
  128
  128
  0
EndShort
LangName: 1033 "+AKkA Copyright Bethesda Softworks LLC.+AKkA 2010. All Rights Reserved, FFDec v.11.2.0." "" "Regular" "dtype: FFDec v.11.2.0: Controller  Buttons Regular: Version 1.0: Bethesda Softworks LLC.+AKkA 2010. All Rights Reserved" "" "Version 1.0" "" "n/a" "FFDec v.11.2.0"
Encoding: UnicodeBmp
Compacted: 1
UnicodeInterp: none
NameList: AGL For New Fonts
DisplaySize: -128
AntiAlias: 1
FitToEm: 0
WidthSeparation: 154
WinInfo: 0 8 5
BeginChars: 65539 56

StartChar: .notdef
Encoding: 65536 -1 0
Width: 512
Flags: W
LayerCount: 2
Fore
SplineSet
0 683 m 1,0,-1
 438 683 l 1,1,-1
 438 0 l 1,2,-1
 0 0 l 1,3,-1
 0 683 l 1,0,-1
365 610 m 1,4,-1
 73 610 l 1,5,-1
 73 73 l 1,6,-1
 365 73 l 1,7,-1
 365 610 l 1,4,-1
EndSplineSet
Validated: 1
EndChar

StartChar: A
Encoding: 65 65 4
Width: 1120
Flags: W
HStem: -210 202<348 433 688 771> 652 206<507 614.266>
LayerCount: 2
Fore
SplineSet
560 858 m 1,0,1
 781 858 781 858 939 702 c 0,2,3
 1095 545 1095 545 1095 324 c 0,4,5
 1095 104 1095 104 939 -54 c 0,6,7
 781 -210 781 -210 560 -210 c 0,8,9
 340 -210 340 -210 183 -54 c 0,10,11
 27 104 27 104 27 324 c 0,12,13
 27 545 27 545 183 702 c 0,14,15
 340 858 340 858 560 858 c 1,0,1
771 -8 m 1,16,-1
 615 652 l 1,17,-1
 507 652 l 1,18,-1
 348 -8 l 1,19,-1
 433 -8 l 1,20,-1
 469 159 l 1,21,-1
 653 159 l 1,22,-1
 688 -8 l 1,23,-1
 771 -8 l 1,16,-1
560 579 m 1,24,-1
 637 220 l 1,25,-1
 483 220 l 1,26,-1
 560 579 l 1,24,-1
EndSplineSet
Validated: 1
EndChar

StartChar: B
Encoding: 66 66 5
Width: 1124
Flags: W
HStem: -208 197<406 693.777> 646 211<406 681.171>
VStem: 30 374<168 480.609> 478 184<69.5046 271.434 392.898 561.495> 751 344<168 303.88>
LayerCount: 2
Fore
SplineSet
562 857 m 1,0,1
 783 857 783 857 939 701 c 256,2,3
 1095 545 1095 545 1095 324 c 0,4,5
 1095 104 1095 104 939 -52 c 256,6,7
 783 -208 783 -208 562 -208 c 0,8,9
 342 -208 342 -208 186 -52 c 256,10,11
 30 104 30 104 30 324 c 0,12,13
 30 545 30 545 186 701 c 256,14,15
 342 857 342 857 562 857 c 1,0,1
751 222 m 1,16,17
 751 264 751 264 736 293 c 0,18,19
 720 321 720 321 691 337 c 1,20,21
 715 355 715 355 729 381 c 0,22,23
 742 409 742 409 742 446 c 2,24,-1
 742 500 l 2,25,26
 742 580 742 580 701 613 c 0,27,28
 661 646 661 646 580 646 c 2,29,-1
 404 646 l 1,30,-1
 404 -11 l 1,31,-1
 592 -11 l 2,32,33
 676 -11 676 -11 713 23 c 0,34,35
 751 56 751 56 751 138 c 2,36,-1
 751 222 l 1,16,17
593 291 m 1,37,38
 623 291 623 291 643 272 c 0,39,40
 662 254 662 254 662 223 c 2,41,-1
 662 120 l 2,42,43
 662 85 662 85 645 69 c 0,44,45
 628 52 628 52 593 52 c 2,46,-1
 478 52 l 1,47,-1
 478 291 l 1,48,-1
 593 291 l 1,37,38
637 390 m 1,49,50
 617 371 617 371 589 371 c 2,51,-1
 482 371 l 1,52,-1
 482 578 l 1,53,-1
 589 578 l 2,54,55
 624 578 624 578 640 562 c 0,56,57
 657 546 657 546 657 510 c 2,58,-1
 657 440 l 2,59,60
 657 408 657 408 637 390 c 1,49,50
EndSplineSet
Validated: 1
EndChar

StartChar: C
Encoding: 67 67 6
Width: 1125
Flags: W
HStem: -209 205<357 445 676 719.141>
LayerCount: 2
Fore
SplineSet
563 857 m 129,-1,1
 783 857 783 857 940 701 c 0,2,3
 1096 544 1096 544 1096 324 c 256,4,5
 1096 104 1096 104 940 -53 c 0,6,7
 783 -209 783 -209 563 -209 c 256,8,9
 343 -209 343 -209 186 -53 c 0,10,11
 30 104 30 104 30 324 c 256,12,13
 30 544 30 544 186 701 c 0,14,0
 343 857 343 857 563 857 c 129,-1,1
767 -4 m 1,15,-1
 606 337 l 1,16,-1
 758 652 l 1,17,-1
 671 652 l 1,18,-1
 564 430 l 1,19,-1
 461 652 l 1,20,-1
 372 652 l 1,21,-1
 520 335 l 1,22,-1
 357 -4 l 1,23,-1
 445 -4 l 1,24,-1
 563 242 l 1,25,-1
 676 -4 l 1,26,-1
 767 -4 l 1,15,-1
EndSplineSet
Validated: 1
EndChar

StartChar: D
Encoding: 68 68 7
Width: 1128
Flags: W
HStem: -209 202<522.304 603.875> 651 207<352 442 690 775>
VStem: 30 490<167.859 298> 605 492<167.859 298>
LayerCount: 2
Fore
SplineSet
563 858 m 1,0,1
 784 858 784 858 941 702 c 0,2,3
 1097 545 1097 545 1097 324 c 0,4,5
 1097 104 1097 104 941 -53 c 0,6,7
 784 -209 784 -209 563 -209 c 0,8,9
 343 -209 343 -209 186 -53 c 0,10,11
 30 104 30 104 30 324 c 0,12,13
 30 545 30 545 186 702 c 0,14,15
 343 858 343 858 563 858 c 1,0,1
775 651 m 1,16,-1
 690 651 l 1,17,-1
 566 377 l 1,18,-1
 442 651 l 1,19,-1
 352 651 l 1,20,-1
 520 298 l 1,21,-1
 520 -7 l 1,22,-1
 605 -7 l 1,23,-1
 605 298 l 1,24,-1
 775 651 l 1,16,-1
EndSplineSet
Validated: 1
EndChar

StartChar: E
Encoding: 69 69 8
Width: 1133
Flags: W
HStem: -209 345<508.984 719.75> 537 321<406.859 650.141>
VStem: 30 286<276.629 480.75> 845 252<167.859 391.5>
LayerCount: 2
Fore
SplineSet
374 480 m 1,0,-1
 596 480 l 1,1,-1
 596 414 l 1,2,-1
 654 414 l 1,3,-1
 654 537 l 1,4,-1
 316 537 l 1,5,-1
 316 275 l 1,6,-1
 482 275 l 1,7,-1
 482 331 l 1,8,-1
 374 331 l 1,9,-1
 374 480 l 1,0,-1
506 136 m 1,10,-1
 845 136 l 1,11,-1
 845 398 l 1,12,-1
 506 398 l 1,13,-1
 506 136 l 1,10,-1
564 342 m 1,14,-1
 787 342 l 1,15,-1
 787 193 l 1,16,-1
 564 193 l 1,17,-1
 564 342 l 1,14,-1
563 858 m 1,18,19
 784 858 784 858 941 702 c 0,20,21
 1097 545 1097 545 1097 324 c 0,22,23
 1097 104 1097 104 941 -53 c 0,24,25
 784 -209 784 -209 563 -209 c 0,26,27
 343 -209 343 -209 186 -53 c 0,28,29
 30 104 30 104 30 324 c 0,30,31
 30 545 30 545 186 702 c 0,32,33
 343 858 343 858 563 858 c 1,18,19
EndSplineSet
Validated: 1
EndChar

StartChar: F
Encoding: 70 70 9
Width: 1131
Flags: W
HStem: 28 63<351 535 571 747.403> 295 65<646.503 753.591> 544 63<648.597 824>
VStem: 279 72<91 607> 557 73<378.533 525.436> 766 72<110.595 278.498>
LayerCount: 2
Fore
SplineSet
400 -51 m 25,0,-1
 559 -205 l 25,1,-1
 717 -51 l 25,2,-1
 400 -51 l 25,0,-1
30 324 m 25,3,-1
 183 165 l 25,4,-1
 183 483 l 25,5,-1
 30 324 l 25,3,-1
1087 324 m 1,6,-1
 934 483 l 1,7,-1
 934 165 l 1,8,-1
 1087 324 l 1,6,-1
25 324 m 1,9,10
 25 545 25 545 181 702 c 0,11,12
 338 858 338 858 558 858 c 0,13,14
 779 858 779 858 936 702 c 0,15,16
 1092 545 1092 545 1092 324 c 1,17,18
 1092 104 1092 104 936 -54 c 0,19,20
 779 -210 779 -210 559 -210 c 1,21,-1
 558 -210 l 2,22,23
 338 -210 338 -210 181 -54 c 0,24,25
 25 104 25 104 25 324 c 1,9,10
559 853 m 1,26,-1
 400 699 l 1,27,-1
 717 699 l 1,28,-1
 559 853 l 1,26,-1
279 607 m 1,29,-1
 279 28 l 1,30,-1
 535 28 l 1,31,-1
 535 91 l 1,32,-1
 351 91 l 1,33,-1
 351 607 l 1,34,-1
 279 607 l 1,29,-1
838 169 m 2,35,36
 838 224 l 2,37,38
 838 295 838 295 805 327 c 0,39,40
 771 360 771 360 714 360 c 2,41,-1
 689 360 l 2,42,43
 662 360 662 360 646 378 c 0,44,45
 630 395 630 395 630 420 c 2,46,-1
 630 483 l 2,47,48
 630 508 630 508 648 526 c 0,49,50
 667 544 667 544 698 544 c 2,51,-1
 824 544 l 1,52,-1
 824 607 l 1,53,-1
 706 607 l 2,54,55
 635 607 635 607 595 573 c 0,56,57
 557 538 557 538 557 467 c 2,58,-1
 557 435 l 2,59,60
 557 364 557 364 594 330 c 0,61,62
 631 295 631 295 690 295 c 2,63,-1
 715 295 l 2,64,65
 741 295 741 295 754 279 c 0,66,67
 766 263 766 263 766 239 c 2,68,-1
 766 153 l 2,69,70
 766 129 766 129 748 110 c 0,71,72
 729 91 729 91 697 91 c 2,73,-1
 571 91 l 1,74,-1
 571 28 l 1,75,-1
 689 28 l 2,76,77
 761 28 761 28 799 63 c 0,78,79
 838 98 838 98 838 169 c 2,35,36
EndSplineSet
Validated: 1
EndChar

StartChar: G
Encoding: 71 71 10
Width: 1429
Flags: W
HStem: -209 199<369.163 470 960 1063.84> 650 207<369.163 450 949 1053.06>
VStem: 18 351<99.9746 547.86> 849 185<75.5049 279.434 393.898 564.495> 1120 295<99.9746 304.453>
LayerCount: 2
Fore
SplineSet
470 -209 m 1,0,1
 283 -209 283 -209 151 -77 c 0,2,3
 18 56 18 56 18 243 c 2,4,-1
 18 405 l 2,5,6
 18 592 18 592 151 724 c 0,7,8
 283 857 283 857 470 857 c 2,9,-1
 963 857 l 2,10,11
 1150 857 1150 857 1282 724 c 0,12,13
 1415 592 1415 592 1415 405 c 2,14,-1
 1415 243 l 2,15,16
 1415 56 1415 56 1282 -77 c 0,17,18
 1150 -209 1150 -209 963 -209 c 2,19,-1
 470 -209 l 1,0,1
661 62 m 1,20,-1
 450 62 l 1,21,-1
 450 650 l 1,22,-1
 369 650 l 1,23,-1
 369 -10 l 1,24,-1
 661 -10 l 1,25,-1
 661 62 l 1,20,-1
1120 224 m 1,26,27
 1120 266 1120 266 1104 294 c 0,28,29
 1089 323 1089 323 1058 340 c 1,30,31
 1084 357 1084 357 1097 384 c 0,32,33
 1111 411 1111 411 1111 449 c 2,34,-1
 1111 503 l 2,35,36
 1111 584 1111 584 1070 617 c 256,37,38
 1029 650 1029 650 949 650 c 2,39,-1
 771 650 l 1,40,-1
 771 -10 l 1,41,-1
 960 -10 l 2,42,43
 1045 -10 1045 -10 1082 24 c 0,44,45
 1120 58 1120 58 1120 139 c 2,46,-1
 1120 224 l 1,26,27
1009 391 m 1,47,48
 989 372 989 372 961 372 c 2,49,-1
 854 372 l 1,50,-1
 854 581 l 1,51,-1
 961 581 l 2,52,53
 997 581 997 581 1013 565 c 256,54,55
 1029 549 1029 549 1029 513 c 2,56,-1
 1029 441 l 2,57,58
 1029 409 1029 409 1009 391 c 1,47,48
965 298 m 1,59,60
 995 298 995 298 1015 280 c 0,61,62
 1034 262 1034 262 1034 230 c 2,63,-1
 1034 127 l 2,64,65
 1034 91 1034 91 1017 75 c 256,66,67
 1000 59 1000 59 965 59 c 2,68,-1
 849 59 l 1,69,-1
 849 298 l 1,70,-1
 965 298 l 1,59,60
EndSplineSet
Validated: 1
EndChar

StartChar: H
Encoding: 72 72 11
Width: 1124
Flags: W
HStem: -210 200<406.859 561 602 719.75> 62 231<649.625 801.34> 368 209<689.66 746 764 847.704> 750 108<406.859 719.75>
VStem: 30 239<167.25 480.75> 351 235<356.682 583.74> 905 192<167.25 310.239>
LayerCount: 2
Fore
SplineSet
554 607 m 1,0,-1
 747 750 l 1,1,-1
 362 750 l 1,2,-1
 554 607 l 1,0,-1
563 858 m 1,3,4
 784 858 784 858 941 702 c 0,5,6
 1097 545 1097 545 1097 324 c 256,7,8
 1097 103 1097 103 941 -54 c 0,9,10
 784 -210 784 -210 563 -210 c 0,11,12
 343 -210 343 -210 186 -54 c 0,13,14
 30 103 30 103 30 324 c 256,15,16
 30 545 30 545 186 702 c 0,17,18
 343 858 343 858 563 858 c 1,3,4
561 62 m 1,19,-1
 351 62 l 1,20,-1
 351 649 l 1,21,-1
 269 649 l 1,22,-1
 269 -10 l 1,23,-1
 561 -10 l 1,24,-1
 561 62 l 1,19,-1
905 212 m 1,25,26
 905 293 905 293 867 330 c 0,27,28
 829 368 829 368 764 368 c 2,29,-1
 735 368 l 2,30,31
 705 368 705 368 687 388 c 0,32,33
 668 407 668 407 668 436 c 2,34,-1
 668 507 l 2,35,36
 668 535 668 535 689 556 c 256,37,38
 710 577 710 577 746 577 c 2,39,-1
 890 577 l 1,40,-1
 890 649 l 1,41,-1
 755 649 l 2,42,43
 674 649 674 649 629 609 c 0,44,45
 586 570 586 570 586 489 c 2,46,-1
 586 453 l 2,47,48
 586 372 586 372 627 333 c 0,49,50
 669 293 669 293 737 293 c 2,51,-1
 765 293 l 2,52,53
 795 293 795 293 809 276 c 0,54,55
 823 257 823 257 823 230 c 2,56,-1
 823 132 l 2,57,58
 823 104 823 104 802 83 c 256,59,60
 781 62 781 62 745 62 c 2,61,-1
 602 62 l 1,62,-1
 602 -10 l 1,63,-1
 735 -10 l 2,64,65
 818 -10 818 -10 861 30 c 0,66,67
 905 69 905 69 905 150 c 2,68,-1
 905 212 l 1,25,26
EndSplineSet
Validated: 1
EndChar

StartChar: I
Encoding: 73 73 12
Width: 1448
Flags: W
HStem: -209 200<395.819 475 968 996.883> 648 209<395.819 475 968 1110.86>
VStem: 23 371<99.9746 547.86> 1001 419<99.9746 547.86>
LayerCount: 2
Fore
SplineSet
475 -209 m 1,0,1
 288 -209 288 -209 156 -77 c 0,2,3
 23 56 23 56 23 243 c 2,4,-1
 23 405 l 2,5,6
 23 592 23 592 156 724 c 0,7,8
 288 857 288 857 475 857 c 2,9,-1
 968 857 l 2,10,11
 1155 857 1155 857 1287 724 c 0,12,13
 1420 592 1420 592 1420 405 c 2,14,-1
 1420 243 l 2,15,16
 1420 56 1420 56 1287 -77 c 0,17,18
 1155 -209 1155 -209 968 -209 c 2,19,-1
 475 -209 l 1,0,1
394 -9 m 1,20,-1
 685 -9 l 1,21,-1
 685 63 l 1,22,-1
 475 63 l 1,23,-1
 475 648 l 1,24,-1
 394 648 l 1,25,-1
 394 -9 l 1,20,-1
770 577 m 1,26,-1
 920 577 l 1,27,-1
 920 -9 l 1,28,-1
 1001 -9 l 1,29,-1
 1001 577 l 1,30,-1
 1150 577 l 1,31,-1
 1150 648 l 1,32,-1
 770 648 l 1,33,-1
 770 577 l 1,26,-1
EndSplineSet
Validated: 1
EndChar

StartChar: J
Encoding: 74 74 13
Width: 2817
Flags: W
HStem: -210 209<359.937 660 864 949 1510 1595 1816 1908 2075 2155.26> 360 254<1591 1754.46> 681 174<359.937 443 709 1103 1510 1796.37 1920 2258.03>
VStem: 30 328<99.1396 546.025> 443 421<73 606> 949 561<-1 606> 1591 182<378.536 596.495> 1861 214<345.037 604.887> 2160 407<99.1396 546.025>
LayerCount: 2
Fore
SplineSet
482 855 m 1,0,-1
 2115 855 l 2,1,2
 2302 855 2302 855 2435 723 c 0,3,4
 2567 590 2567 590 2567 403 c 2,5,-1
 2567 242 l 2,6,7
 2567 55 2567 55 2435 -77 c 0,8,9
 2302 -210 2302 -210 2115 -210 c 2,10,-1
 482 -210 l 2,11,12
 295 -210 295 -210 163 -77 c 0,13,14
 30 55 30 55 30 242 c 2,15,-1
 30 403 l 2,16,17
 30 590 30 590 163 723 c 0,18,19
 295 855 295 855 482 855 c 1,0,-1
660 -1 m 1,20,-1
 660 73 l 1,21,-1
 443 73 l 1,22,-1
 443 681 l 1,23,-1
 358 681 l 1,24,-1
 358 -1 l 1,25,-1
 660 -1 l 1,20,-1
1103 606 m 1,26,-1
 1103 681 l 1,27,-1
 709 681 l 1,28,-1
 709 606 l 1,29,-1
 864 606 l 1,30,-1
 864 -1 l 1,31,-1
 949 -1 l 1,32,-1
 949 606 l 1,33,-1
 1103 606 l 1,26,-1
1816 -1 m 1,34,-1
 1908 -1 l 1,35,-1
 1773 298 l 1,36,37
 1815 311 1815 311 1838 344 c 256,38,39
 1861 377 1861 377 1861 435 c 2,40,-1
 1861 528 l 2,41,42
 1861 609 1861 609 1817 645 c 0,43,44
 1774 681 1774 681 1693 681 c 2,45,-1
 1510 681 l 1,46,-1
 1510 -1 l 1,47,-1
 1595 -1 l 1,48,-1
 1595 281 l 1,49,-1
 1690 281 l 1,50,-1
 1816 -1 l 1,34,-1
2315 606 m 1,51,-1
 2315 681 l 1,52,-1
 1920 681 l 1,53,-1
 1920 606 l 1,54,-1
 2075 606 l 1,55,-1
 2075 -1 l 1,56,-1
 2160 -1 l 1,57,-1
 2160 606 l 1,58,-1
 2315 606 l 1,51,-1
1773 544 m 1,59,-1
 1773 432 l 2,60,61
 1773 395 1773 395 1755 378 c 0,62,63
 1738 360 1738 360 1701 360 c 2,64,-1
 1591 360 l 1,65,-1
 1591 614 l 1,66,-1
 1701 614 l 2,67,68
 1738 614 1738 614 1755 597 c 0,69,70
 1773 581 1773 581 1773 544 c 1,59,-1
EndSplineSet
Validated: 1
EndChar

StartChar: K
Encoding: 75 75 14
Width: 1131
Flags: W
HStem: -210 240<521 599 606 779> -56 86<521 599 606 717> 92 204<644.615 781.434> 340 213<333 471.527> 361 184<683.597 826.441> 605 253<338 485 669 779> 605 99<400 512.266 641.621 717>
VStem: 178 84<165 483> 333 153<354.442 538.558> 559 33<358.747 544.706> 873 66<165.598 314.629>
LayerCount: 2
Fore
SplineSet
30 324 m 25,0,-1
 183 165 l 25,1,-1
 183 483 l 25,2,-1
 30 324 l 25,0,-1
400 -51 m 25,3,-1
 559 -205 l 25,4,-1
 717 -51 l 25,5,-1
 400 -51 l 25,3,-1
934 483 m 25,6,-1
 934 165 l 25,7,-1
 1087 324 l 25,8,-1
 934 483 l 25,6,-1
558 853 m 25,9,-1
 400 699 l 25,10,-1
 717 699 l 25,11,-1
 558 853 l 25,9,-1
415 268 m 1,12,-1
 521 30 l 1,13,-1
 599 30 l 1,14,-1
 485 282 l 1,15,16
 520 293 520 293 539 321 c 0,17,18
 559 349 559 349 559 398 c 2,19,-1
 559 477 l 2,20,21
 559 545 559 545 522 576 c 0,22,23
 485 605 485 605 417 605 c 2,24,-1
 262 605 l 1,25,-1
 262 30 l 1,26,-1
 334 30 l 1,27,-1
 334 268 l 1,28,-1
 415 268 l 1,12,-1
426 340 m 2,29,-1
 333 340 l 1,30,-1
 333 553 l 1,31,-1
 426 553 l 2,32,33
 457 553 457 553 472 539 c 0,34,35
 486 525 486 525 486 494 c 2,36,-1
 486 400 l 2,37,38
 486 368 486 368 472 354 c 0,39,40
 457 340 457 340 426 340 c 2,29,-1
873 170 m 2,41,-1
 873 225 l 2,42,43
 873 296 873 296 840 328 c 0,44,45
 806 361 806 361 749 361 c 2,46,-1
 724 361 l 2,47,48
 697 361 697 361 681 379 c 0,49,50
 665 396 665 396 665 421 c 2,51,-1
 665 484 l 2,52,53
 665 509 665 509 683 527 c 0,54,55
 702 545 702 545 733 545 c 2,56,-1
 859 545 l 1,57,-1
 859 608 l 1,58,-1
 741 608 l 2,59,60
 669 608 669 608 630 574 c 0,61,62
 592 539 592 539 592 468 c 2,63,-1
 592 436 l 2,64,65
 592 365 592 365 629 331 c 0,66,67
 665 296 665 296 725 296 c 2,68,-1
 750 296 l 2,69,70
 776 296 776 296 789 280 c 0,71,72
 800 264 800 264 800 240 c 2,73,-1
 800 154 l 2,74,75
 800 130 800 130 782 111 c 128,-1,76
 764 92 764 92 732 92 c 2,77,-1
 606 92 l 1,78,-1
 606 29 l 1,79,-1
 724 29 l 2,80,81
 796 29 796 29 834 64 c 0,82,83
 873 99 873 99 873 170 c 2,41,-1
559 858 m 1,84,85
 779 858 779 858 936 702 c 0,86,87
 1092 547 1092 547 1092 324 c 1,88,89
 1092 104 1092 104 936 -54 c 0,90,91
 779 -210 779 -210 559 -210 c 1,92,-1
 558 -210 l 2,93,94
 338 -210 338 -210 181 -54 c 0,95,96
 25 104 25 104 25 324 c 1,97,98
 25 545 25 545 181 702 c 0,99,100
 338 858 338 858 558 858 c 2,101,-1
 559 858 l 1,84,85
EndSplineSet
Validated: 1
EndChar

StartChar: L
Encoding: 76 76 15
Width: 1449
Flags: W
HStem: -209 199<342.299 422 973 1084.5> 647 210<342.299 620.02 968 1073.22>
VStem: 28 313<99.9746 547.86> 422 184<357.505 559.434> 679 113<322.975 411 501 590.395> 875 175<70.5359 282.495 393.566 566.464> 1139 286<99.9746 305.065>
LayerCount: 2
Fore
SplineSet
480 -209 m 1,0,1
 293 -209 293 -209 161 -77 c 0,2,3
 28 56 28 56 28 243 c 2,4,-1
 28 405 l 2,5,6
 28 592 28 592 161 724 c 0,7,8
 293 857 293 857 480 857 c 2,9,-1
 973 857 l 2,10,11
 1160 857 1160 857 1292 724 c 0,12,13
 1425 592 1425 592 1425 405 c 2,14,-1
 1425 243 l 2,15,16
 1425 56 1425 56 1292 -77 c 0,17,18
 1160 -209 1160 -209 973 -209 c 2,19,-1
 480 -209 l 1,0,1
725 -10 m 1,20,-1
 595 278 l 1,21,22
 635 291 635 291 657 322 c 256,23,24
 679 353 679 353 679 411 c 2,25,-1
 679 501 l 2,26,27
 679 579 679 579 637 613 c 256,28,29
 595 647 595 647 518 647 c 2,30,-1
 341 647 l 1,31,-1
 341 -10 l 1,32,-1
 422 -10 l 1,33,-1
 422 262 l 1,34,-1
 515 262 l 1,35,-1
 636 -10 l 1,36,-1
 725 -10 l 1,20,-1
1139 222 m 1,37,38
 1139 265 1139 265 1124 293 c 0,39,40
 1109 322 1109 322 1078 338 c 1,41,42
 1103 355 1103 355 1116 382 c 0,43,44
 1130 409 1130 409 1130 447 c 2,45,-1
 1130 501 l 2,46,47
 1130 582 1130 582 1090 614 c 0,48,49
 1049 647 1049 647 968 647 c 2,50,-1
 792 647 l 1,51,-1
 792 -10 l 1,52,-1
 980 -10 l 2,53,54
 1065 -10 1065 -10 1102 23 c 0,55,56
 1139 57 1139 57 1139 138 c 2,57,-1
 1139 222 l 1,37,38
1050 123 m 1,58,59
 1050 87 1050 87 1033 70 c 0,60,61
 1017 54 1017 54 981 54 c 2,62,-1
 875 54 l 1,63,-1
 875 299 l 1,64,-1
 981 299 l 2,65,66
 1017 299 1017 299 1033 283 c 0,67,68
 1050 267 1050 267 1050 231 c 2,69,-1
 1050 123 l 1,58,59
537 579 m 1,70,71
 568 579 568 579 587 560 c 0,72,73
 606 542 606 542 606 511 c 2,74,-1
 606 408 l 2,75,76
 606 373 606 373 589 357 c 0,77,78
 573 340 573 340 537 340 c 2,79,-1
 422 340 l 1,80,-1
 422 579 l 1,81,-1
 537 579 l 1,70,71
1028 393 m 1,82,83
 1007 375 1007 375 980 375 c 2,84,-1
 873 375 l 1,85,-1
 873 582 l 1,86,-1
 980 582 l 2,87,88
 1015 582 1015 582 1032 567 c 0,89,90
 1048 550 1048 550 1048 515 c 2,91,-1
 1048 444 l 2,92,93
 1048 411 1048 411 1028 393 c 1,82,83
EndSplineSet
Validated: 1
EndChar

StartChar: M
Encoding: 77 77 16
Width: 1129
Flags: W
HStem: -209 186<535 624 629 719.75> 48 231<677.188 828.34> 331 244<321 478.495> 353 210<716.691 874.704> 750 108<406.859 719.75>
VStem: 30 210<167.859 480.75> 321 174<347.536 558.495> 578 35<352.785 557.494> 932 165<167.859 296.239>
LayerCount: 2
Fore
SplineSet
362 750 m 1,0,-1
 554 607 l 1,1,-1
 747 750 l 1,2,-1
 362 750 l 1,0,-1
563 858 m 1,3,4
 784 858 784 858 941 702 c 0,5,6
 1097 545 1097 545 1097 324 c 0,7,8
 1097 104 1097 104 941 -53 c 0,9,10
 784 -209 784 -209 563 -209 c 0,11,12
 343 -209 343 -209 186 -53 c 0,13,14
 30 104 30 104 30 324 c 0,15,16
 30 545 30 545 186 702 c 0,17,18
 343 858 343 858 563 858 c 1,3,4
535 -23 m 1,19,-1
 624 -23 l 1,20,-1
 494 265 l 1,21,22
 534 278 534 278 556 310 c 0,23,24
 578 341 578 341 578 397 c 2,25,-1
 578 487 l 2,26,27
 578 566 578 566 536 600 c 0,28,29
 495 634 495 634 417 634 c 2,30,-1
 240 634 l 1,31,-1
 240 -23 l 1,32,-1
 322 -23 l 1,33,-1
 322 249 l 1,34,-1
 414 249 l 1,35,-1
 535 -23 l 1,19,-1
932 136 m 1,36,-1
 932 198 l 2,37,38
 932 279 932 279 894 316 c 256,39,40
 856 353 856 353 791 353 c 2,41,-1
 763 353 l 2,42,43
 732 353 732 353 714 373 c 256,44,45
 696 393 696 393 696 421 c 2,46,-1
 696 492 l 2,47,48
 696 520 696 520 716 541 c 0,49,50
 738 563 738 563 773 563 c 2,51,-1
 917 563 l 1,52,-1
 917 634 l 1,53,-1
 783 634 l 2,54,55
 701 634 701 634 658 595 c 0,56,57
 613 555 613 555 613 474 c 2,58,-1
 613 438 l 2,59,60
 613 358 613 358 655 318 c 0,61,62
 696 279 696 279 764 279 c 2,63,-1
 792 279 l 2,64,65
 822 279 822 279 836 261 c 256,66,67
 850 243 850 243 850 216 c 2,68,-1
 850 118 l 2,69,70
 850 90 850 90 829 69 c 256,71,72
 808 48 808 48 773 48 c 2,73,-1
 629 48 l 1,74,-1
 629 -23 l 1,75,-1
 763 -23 l 2,76,77
 845 -23 845 -23 888 16 c 0,78,79
 932 55 932 55 932 136 c 1,36,-1
495 507 m 1,80,-1
 495 400 l 2,81,82
 495 364 495 364 479 347 c 0,83,84
 463 331 463 331 427 331 c 2,85,-1
 321 331 l 1,86,-1
 321 575 l 1,87,-1
 427 575 l 2,88,89
 463 575 463 575 479 559 c 256,90,91
 495 543 495 543 495 507 c 1,80,-1
EndSplineSet
Validated: 1
EndChar

StartChar: N
Encoding: 78 78 17
Width: 1452
Flags: W
HStem: -209 198<384.537 464 973 1013.25> 647 210<384.537 659.452 973 1115.86>
VStem: 28 353<99.9746 547.86> 461 175<353.536 564.495> 720 215<322.006 409 500 573.828> 1017 408<99.9746 547.86>
LayerCount: 2
Fore
SplineSet
480 -209 m 1,0,1
 293 -209 293 -209 161 -77 c 0,2,3
 28 56 28 56 28 243 c 2,4,-1
 28 405 l 2,5,6
 28 592 28 592 161 724 c 0,7,8
 293 857 293 857 480 857 c 2,9,-1
 973 857 l 2,10,11
 1160 857 1160 857 1292 724 c 0,12,13
 1425 592 1425 592 1425 405 c 2,14,-1
 1425 243 l 2,15,16
 1425 56 1425 56 1292 -77 c 0,17,18
 1160 -209 1160 -209 973 -209 c 2,19,-1
 480 -209 l 1,0,1
766 -11 m 1,20,-1
 635 277 l 1,21,22
 676 290 676 290 698 321 c 0,23,24
 720 353 720 353 720 409 c 2,25,-1
 720 500 l 2,26,27
 720 578 720 578 678 612 c 0,28,29
 636 647 636 647 558 647 c 2,30,-1
 381 647 l 1,31,-1
 381 -11 l 1,32,-1
 464 -11 l 1,33,-1
 464 261 l 1,34,-1
 555 261 l 1,35,-1
 677 -11 l 1,36,-1
 766 -11 l 1,20,-1
1167 647 m 1,37,-1
 786 647 l 1,38,-1
 786 575 l 1,39,-1
 935 575 l 1,40,-1
 935 -11 l 1,41,-1
 1017 -11 l 1,42,-1
 1017 575 l 1,43,-1
 1167 575 l 1,44,-1
 1167 647 l 1,37,-1
636 405 m 1,45,46
 636 370 636 370 620 353 c 0,47,48
 603 337 603 337 567 337 c 2,49,-1
 461 337 l 1,50,-1
 461 581 l 1,51,-1
 567 581 l 2,52,53
 603 581 603 581 620 565 c 0,54,55
 636 549 636 549 636 513 c 2,56,-1
 636 405 l 1,45,46
EndSplineSet
Validated: 1
EndChar

StartChar: O
Encoding: 79 79 18
Width: 1128
Flags: W
HStem: -209 368<406.859 719.75> 493 365<406.859 719.75>
LayerCount: 2
Fore
SplineSet
303 159 m 1,0,-1
 843 159 l 1,1,-1
 843 215 l 1,2,-1
 303 215 l 1,3,-1
 303 159 l 1,0,-1
303 298 m 1,4,-1
 843 298 l 1,5,-1
 843 354 l 1,6,-1
 303 354 l 1,7,-1
 303 298 l 1,4,-1
303 437 m 1,8,-1
 843 437 l 1,9,-1
 843 493 l 1,10,-1
 303 493 l 1,11,-1
 303 437 l 1,8,-1
563 858 m 1,12,13
 784 858 784 858 941 702 c 0,14,15
 1097 545 1097 545 1097 324 c 0,16,17
 1097 104 1097 104 941 -53 c 0,18,19
 784 -209 784 -209 563 -209 c 0,20,21
 343 -209 343 -209 186 -53 c 0,22,23
 30 104 30 104 30 324 c 0,24,25
 30 545 30 545 186 702 c 0,26,27
 343 858 343 858 563 858 c 1,12,13
EndSplineSet
Validated: 1
EndChar

StartChar: P
Encoding: 80 80 19
Width: 1125
Flags: W
VStem: 25 247<284.134 358.99> 846 247<284.134 358.99>
LayerCount: 2
Fore
SplineSet
599 611 m 1,0,-1
 519 611 l 1,1,-1
 519 365 l 1,2,-1
 272 365 l 1,3,-1
 272 284 l 1,4,-1
 519 284 l 1,5,-1
 519 38 l 1,6,-1
 599 38 l 1,7,-1
 599 284 l 1,8,-1
 846 284 l 1,9,-1
 846 365 l 1,10,-1
 599 365 l 1,11,-1
 599 611 l 1,0,-1
559 858 m 129,-1,13
 780 858 780 858 937 702 c 0,14,15
 1093 545 1093 545 1093 325 c 0,16,17
 1093 104 1093 104 937 -52 c 0,18,19
 780 -209 780 -209 559 -209 c 256,20,21
 338 -209 338 -209 181 -52 c 0,22,23
 25 104 25 104 25 325 c 0,24,25
 25 545 25 545 181 702 c 0,26,12
 338 858 338 858 559 858 c 129,-1,13
EndSplineSet
Validated: 1
EndChar

StartChar: Q
Encoding: 81 81 20
Width: 1124
Flags: W
HStem: -209 493<398.859 711.141> 364 493<398.859 711.141>
LayerCount: 2
Fore
SplineSet
268 284 m 1,0,-1
 842 284 l 1,1,-1
 842 364 l 1,2,-1
 268 364 l 1,3,-1
 268 284 l 1,0,-1
555 857 m 129,-1,5
 775 857 775 857 932 701 c 0,6,7
 1088 544 1088 544 1088 324 c 256,8,9
 1088 104 1088 104 932 -53 c 0,10,11
 775 -209 775 -209 555 -209 c 256,12,13
 335 -209 335 -209 178 -53 c 0,14,15
 22 104 22 104 22 324 c 256,16,17
 22 544 22 544 178 701 c 0,18,4
 335 857 335 857 555 857 c 129,-1,5
EndSplineSet
Validated: 1
EndChar

StartChar: R
Encoding: 82 82 21
Width: 1119
Flags: W
HStem: -209 217<512.461 588.231> 108 27<516.016 583.105> 620 238<477.004 626.895>
VStem: 518 76<498 542.974>
LayerCount: 2
Fore
SplineSet
551 620 m 1,0,1
 483 620 483 620 458 575 c 0,2,3
 441 543 441 543 441 468 c 2,4,-1
 441 458 l 1,5,-1
 518 458 l 1,6,-1
 518 473 l 2,7,8
 518 509 518 509 522 521 c 0,9,10
 529 549 529 549 554 549 c 0,11,12
 584 549 584 549 592 498 c 0,13,14
 594 479 594 479 594 425 c 0,15,16
 594 374 594 374 587 355 c 0,17,18
 574 323 574 323 534 323 c 2,19,-1
 514 323 l 1,20,-1
 514 135 l 1,21,-1
 588 135 l 1,22,-1
 588 268 l 1,23,-1
 589 268 l 2,24,25
 644 268 644 268 663 326 c 0,26,27
 674 361 674 361 674 434 c 0,28,29
 674 524 674 524 656 563 c 0,30,31
 629 620 629 620 551 620 c 1,0,1
550 108 m 129,-1,33
 530 108 530 108 514 93 c 0,34,35
 500 79 500 79 500 58 c 0,36,37
 500 38 500 38 514 23 c 0,38,39
 530 8 530 8 550 8 c 256,40,41
 570 8 570 8 585 23 c 256,42,43
 600 38 600 38 600 58 c 0,44,45
 600 79 600 79 585 93 c 0,46,32
 570 108 570 108 550 108 c 129,-1,33
558 858 m 1,47,48
 778 858 778 858 935 702 c 0,49,50
 1091 545 1091 545 1091 325 c 0,51,52
 1091 104 1091 104 935 -52 c 0,53,54
 778 -209 778 -209 558 -209 c 0,55,56
 337 -209 337 -209 180 -52 c 0,57,58
 24 104 24 104 24 325 c 0,59,60
 24 545 24 545 180 702 c 0,61,62
 337 858 337 858 558 858 c 1,47,48
EndSplineSet
Validated: 1
EndChar

StartChar: S
Encoding: 83 83 22
Width: 1124
Flags: W
LayerCount: 2
Fore
SplineSet
565 373 m 129,-1,1
 545 373 545 373 530 359 c 0,2,3
 515 344 515 344 515 324 c 256,4,5
 515 304 515 304 530 289 c 0,6,7
 544 274 544 274 565 274 c 0,8,9
 585 274 585 274 600 289 c 256,10,11
 615 304 615 304 615 324 c 256,12,13
 615 344 615 344 600 359 c 0,14,0
 585 373 585 373 565 373 c 129,-1,1
565 858 m 129,-1,16
 786 858 786 858 943 701 c 0,17,18
 1099 545 1099 545 1099 324 c 256,19,20
 1099 103 1099 103 943 -54 c 0,21,22
 786 -210 786 -210 565 -210 c 256,23,24
 344 -210 344 -210 187 -54 c 0,25,26
 31 103 31 103 31 324 c 256,27,28
 31 545 31 545 187 701 c 0,29,15
 344 858 344 858 565 858 c 129,-1,16
EndSplineSet
Validated: 1
EndChar

StartChar: T
Encoding: 84 84 23
Width: 1123
Flags: W
HStem: -210 491<546.25 716.141> 365 492<546.25 716.141>
VStem: 870 223<282.304 363.866>
LayerCount: 2
Fore
SplineSet
870 365 m 1,0,-1
 541 365 l 1,1,-1
 541 560 l 1,2,-1
 184 323 l 1,3,-1
 541 85 l 1,4,-1
 541 281 l 1,5,-1
 870 281 l 1,6,-1
 870 365 l 1,0,-1
560 857 m 1,7,8
 780 857 780 857 937 700 c 0,9,10
 1093 544 1093 544 1093 323 c 0,11,12
 1093 103 1093 103 937 -54 c 0,13,14
 780 -210 780 -210 560 -210 c 0,15,16
 339 -210 339 -210 182 -54 c 0,17,18
 26 103 26 103 26 323 c 0,19,20
 26 544 26 544 182 700 c 0,21,22
 339 857 339 857 560 857 c 1,7,8
EndSplineSet
Validated: 1
EndChar

StartChar: U
Encoding: 85 85 24
Width: 1124
Flags: W
HStem: -209 490<403.25 573.688> 365 492<403.25 573.688>
VStem: 26 226<283.304 364.688>
LayerCount: 2
Fore
SplineSet
252 281 m 1,0,-1
 580 281 l 1,1,-1
 580 85 l 1,2,-1
 938 323 l 1,3,-1
 580 560 l 1,4,-1
 580 365 l 1,5,-1
 252 365 l 1,6,-1
 252 281 l 1,0,-1
560 857 m 1,7,8
 780 857 780 857 937 700 c 0,9,10
 1093 544 1093 544 1093 324 c 256,11,12
 1093 104 1093 104 937 -53 c 0,13,14
 780 -209 780 -209 560 -209 c 0,15,16
 339 -209 339 -209 182 -53 c 0,17,18
 26 104 26 104 26 324 c 256,19,20
 26 544 26 544 182 700 c 0,21,22
 339 857 339 857 560 857 c 1,7,8
EndSplineSet
Validated: 1
EndChar

StartChar: V
Encoding: 86 86 25
Width: 1119
Flags: W
HStem: 628 229<519.125 593.99>
VStem: 26 490<303.513 480> 600 493<303.513 480>
LayerCount: 2
Fore
SplineSet
516 628 m 1,0,-1
 516 299 l 1,1,-1
 321 299 l 1,2,-1
 558 -59 l 1,3,-1
 795 299 l 1,4,-1
 600 299 l 1,5,-1
 600 628 l 1,6,-1
 516 628 l 1,0,-1
560 857 m 1,7,8
 780 857 780 857 937 700 c 0,9,10
 1093 544 1093 544 1093 324 c 256,11,12
 1093 104 1093 104 937 -53 c 0,13,14
 780 -209 780 -209 560 -209 c 0,15,16
 339 -209 339 -209 182 -53 c 0,17,18
 26 104 26 104 26 324 c 256,19,20
 26 544 26 544 182 700 c 0,21,22
 339 857 339 857 560 857 c 1,7,8
EndSplineSet
Validated: 1
EndChar

StartChar: W
Encoding: 87 87 26
Width: 1126
Flags: W
HStem: -210 223<519.125 593.99>
VStem: 26 490<166.859 336.749> 600 493<166.859 336.749>
LayerCount: 2
Fore
SplineSet
600 13 m 1,0,-1
 600 342 l 1,1,-1
 795 342 l 1,2,-1
 558 700 l 1,3,-1
 321 342 l 1,4,-1
 516 342 l 1,5,-1
 516 13 l 1,6,-1
 600 13 l 1,0,-1
560 857 m 1,7,8
 780 857 780 857 937 700 c 0,9,10
 1093 544 1093 544 1093 323 c 0,11,12
 1093 103 1093 103 937 -54 c 0,13,14
 780 -210 780 -210 560 -210 c 0,15,16
 339 -210 339 -210 182 -54 c 0,17,18
 26 103 26 103 26 323 c 0,19,20
 26 544 26 544 182 700 c 0,21,22
 339 857 339 857 560 857 c 1,7,8
EndSplineSet
Validated: 1
EndChar

StartChar: X
Encoding: 88 88 27
Width: 1610
Flags: W
HStem: 680 177<544 648.963>
VStem: 214 146<213.27 435.633> 443 182<375.567 595.464> 712 173<344.007 434 528 604.887> 712 18<606 609>
LayerCount: 2
Fore
SplineSet
25 598 m 1,0,-1
 25 857 l 1,1,-1
 1141 857 l 2,2,3
 1325 857 1325 857 1455 727 c 256,4,5
 1585 597 1585 597 1585 413 c 2,6,-1
 1585 235 l 2,7,8
 1585 52 1585 52 1455 -78 c 0,9,10
 1325 -209 1325 -209 1141 -209 c 2,11,-1
 25 -209 l 1,12,-1
 25 50 l 1,13,-1
 43 59 l 2,14,15
 121 95 121 95 167 167 c 0,16,17
 214 239 214 239 214 324 c 0,18,19
 214 410 214 410 167 482 c 0,20,21
 121 554 121 554 43 590 c 2,22,-1
 25 598 l 1,0,-1
759 -3 m 1,23,-1
 624 297 l 1,24,25
 666 310 666 310 689 343 c 0,26,27
 712 375 712 375 712 434 c 2,28,-1
 712 528 l 2,29,30
 712 609 712 609 668 645 c 0,31,32
 625 680 625 680 544 680 c 2,33,-1
 360 680 l 1,34,-1
 360 -3 l 1,35,-1
 445 -3 l 1,36,-1
 445 280 l 1,37,-1
 541 280 l 1,38,-1
 666 -3 l 1,39,-1
 759 -3 l 1,23,-1
1125 680 m 1,40,-1
 730 680 l 1,41,-1
 730 606 l 1,42,-1
 885 606 l 1,43,-1
 885 -3 l 1,44,-1
 970 -3 l 1,45,-1
 970 606 l 1,46,-1
 1125 606 l 1,47,-1
 1125 680 l 1,40,-1
625 430 m 1,48,49
 625 393 625 393 608 375 c 0,50,51
 590 359 590 359 553 359 c 2,52,-1
 443 359 l 1,53,-1
 443 612 l 1,54,-1
 553 612 l 2,55,56
 590 612 590 612 608 596 c 0,57,58
 625 579 625 579 625 542 c 2,59,-1
 625 430 l 1,48,49
EndSplineSet
Validated: 1
EndChar

StartChar: Y
Encoding: 89 89 28
Width: -1622
Flags: W
HStem: -209 206<670 973 1117 1202> 680 177<670 755 961 1356>
VStem: 755 362<72 607> 973 144<-3 72> 1202 220<213.27 435.633>
LayerCount: 2
Fore
SplineSet
1610 598 m 1,0,-1
 1592 590 l 2,1,2
 1515 554 1515 554 1468 482 c 0,3,4
 1422 410 1422 410 1422 324 c 0,5,6
 1422 239 1422 239 1468 167 c 0,7,8
 1515 95 1515 95 1592 59 c 2,9,-1
 1610 50 l 1,10,-1
 1610 -209 l 1,11,-1
 494 -209 l 2,12,13
 311 -209 311 -209 180 -78 c 0,14,15
 50 52 50 52 50 235 c 2,16,-1
 50 413 l 2,17,18
 50 597 50 597 180 727 c 0,19,20
 311 857 311 857 494 857 c 2,21,-1
 1610 857 l 1,22,-1
 1610 598 l 1,0,-1
670 680 m 1,23,-1
 670 -3 l 1,24,-1
 973 -3 l 1,25,-1
 973 72 l 1,26,-1
 755 72 l 1,27,-1
 755 680 l 1,28,-1
 670 680 l 1,23,-1
961 680 m 1,29,-1
 961 607 l 1,30,-1
 1117 607 l 1,31,-1
 1117 -3 l 1,32,-1
 1202 -3 l 1,33,-1
 1202 607 l 1,34,-1
 1356 607 l 1,35,-1
 1356 680 l 1,36,-1
 961 680 l 1,29,-1
EndSplineSet
Validated: 1
EndChar

StartChar: a
Encoding: 97 97 29
Width: 1126
Flags: W
LayerCount: 2
Fore
SplineSet
792 626 m 1,0,-1
 558 392 l 1,1,-1
 324 626 l 1,2,-1
 250 551 l 1,3,-1
 484 318 l 1,4,-1
 250 84 l 1,5,-1
 324 9 l 1,6,-1
 558 243 l 1,7,-1
 792 9 l 1,8,-1
 866 84 l 1,9,-1
 632 318 l 1,10,-1
 866 551 l 1,11,-1
 792 626 l 1,0,-1
558 857 m 129,-1,13
 778 857 778 857 935 701 c 0,14,15
 1091 544 1091 544 1091 324 c 256,16,17
 1091 104 1091 104 935 -53 c 0,18,19
 778 -209 778 -209 558 -209 c 256,20,21
 338 -209 338 -209 181 -53 c 0,22,23
 25 104 25 104 25 324 c 256,24,25
 25 544 25 544 181 701 c 0,26,12
 338 857 338 857 558 857 c 129,-1,13
EndSplineSet
Validated: 1
EndChar

StartChar: b
Encoding: 98 98 30
Width: 1125
Flags: W
HStem: -209 306<401.859 714.75>
LayerCount: 2
Fore
SplineSet
774 182 m 1,0,-1
 350 182 l 1,1,-1
 562 548 l 1,2,-1
 774 182 l 1,0,-1
558 730 m 1,3,-1
 193 97 l 1,4,-1
 924 97 l 1,5,-1
 558 730 l 1,3,-1
558 858 m 1,6,7
 779 858 779 858 936 702 c 0,8,9
 1092 545 1092 545 1092 325 c 0,10,11
 1092 104 1092 104 936 -53 c 0,12,13
 779 -209 779 -209 558 -209 c 0,14,15
 338 -209 338 -209 181 -53 c 0,16,17
 25 104 25 104 25 325 c 0,18,19
 25 545 25 545 181 702 c 0,20,21
 338 858 338 858 558 858 c 1,6,7
EndSplineSet
Validated: 1
EndChar

StartChar: c
Encoding: 99 99 31
Width: 1129
Flags: W
HStem: -209 234<401 713.75> 631 226<401 713.75>
VStem: 25 226<167 479.75> 856 235<167 479.75>
LayerCount: 2
Fore
SplineSet
358 524 m 1,0,-1
 749 524 l 1,1,-1
 749 132 l 1,2,-1
 358 132 l 1,3,-1
 358 524 l 1,0,-1
557 857 m 1,4,5
 778 857 778 857 935 701 c 0,6,7
 1091 544 1091 544 1091 323 c 0,8,9
 1091 103 1091 103 935 -53 c 0,10,11
 778 -209 778 -209 557 -209 c 0,12,13
 337 -209 337 -209 181 -53 c 256,14,15
 25 103 25 103 25 323 c 0,16,17
 25 544 25 544 181 701 c 0,18,19
 337 857 337 857 557 857 c 1,4,5
856 631 m 1,20,-1
 251 631 l 1,21,-1
 251 25 l 1,22,-1
 856 25 l 1,23,-1
 856 631 l 1,20,-1
EndSplineSet
Validated: 1
EndChar

StartChar: d
Encoding: 100 100 32
Width: 1128
Flags: W
HStem: -209 219<438.621 672.69> 111 430<459.961 652.874> 642 216<438.621 672.69>
VStem: 25 215<209.79 443.62> 342 429<229.126 422.521> 872 220<209.79 443.62>
LayerCount: 2
Fore
SplineSet
404 478 m 1,0,1
 468 541 468 541 556 541 c 0,2,3
 645 541 645 541 709 478 c 0,4,5
 771 415 771 415 771 326 c 256,6,7
 771 237 771 237 709 173 c 0,8,9
 645 111 645 111 556 111 c 0,10,11
 468 111 468 111 404 173 c 0,12,13
 342 237 342 237 342 326 c 256,14,15
 342 415 342 415 404 478 c 1,0,1
332 102 m 1,16,17
 425 10 425 10 556 10 c 0,18,19
 688 10 688 10 780 102 c 0,20,21
 872 195 872 195 872 326 c 256,22,23
 872 457 872 457 780 550 c 0,24,25
 688 642 688 642 556 642 c 0,26,27
 425 642 425 642 332 550 c 0,28,29
 240 457 240 457 240 326 c 256,30,31
 240 195 240 195 332 102 c 1,16,17
558 858 m 1,32,33
 779 858 779 858 936 702 c 0,34,35
 1092 545 1092 545 1092 324 c 0,36,37
 1092 104 1092 104 936 -53 c 0,38,39
 779 -209 779 -209 558 -209 c 0,40,41
 338 -209 338 -209 181 -53 c 0,42,43
 25 104 25 104 25 324 c 0,44,45
 25 545 25 545 181 702 c 0,46,47
 338 858 338 858 558 858 c 1,32,33
EndSplineSet
Validated: 1
EndChar

StartChar: e
Encoding: 101 101 33
Width: -918
Flags: W
HStem: -209 208<325.14 428.625 1897 2039.86> 73 239<238.323 391.34> 387 223<279.255 335 353 442.636> 680 176<325.14 468 1575 1679.96 1897 2056.75>
VStem: 16 153<380.385 546.86> 499 51<67.2217 329.125> 1150 22<528.163 562> 1477 181<375.536 593.433> 1743 62<345.007 435 529 619.747>
LayerCount: 2
Fore
SplineSet
499 229 m 1,0,1
 499 313 499 313 460 351 c 0,2,3
 420 389 420 389 353 389 c 2,4,-1
 324 389 l 2,5,6
 292 389 292 389 273 410 c 0,7,8
 254 430 254 430 254 459 c 2,9,-1
 254 534 l 2,10,11
 254 562 254 562 276 585 c 0,12,13
 297 606 297 606 335 606 c 2,14,-1
 484 606 l 1,15,-1
 484 680 l 1,16,-1
 344 680 l 2,17,18
 260 680 260 680 215 640 c 0,19,20
 169 599 169 599 169 515 c 2,21,-1
 169 478 l 2,22,23
 169 395 169 395 212 354 c 0,24,25
 255 312 255 312 325 312 c 2,26,-1
 354 312 l 2,27,28
 386 312 386 312 400 294 c 0,29,30
 414 275 414 275 414 247 c 2,31,-1
 414 146 l 2,32,33
 414 117 414 117 392 95 c 0,34,35
 371 73 371 73 334 73 c 2,36,-1
 185 73 l 1,37,-1
 185 -1 l 1,38,-1
 324 -1 l 2,39,40
 408 -1 408 -1 454 39 c 0,41,42
 499 80 499 80 499 165 c 2,43,-1
 499 229 l 1,0,1
920 680 m 1,44,-1
 835 680 l 1,45,-1
 835 385 l 1,46,-1
 634 385 l 1,47,-1
 634 680 l 1,48,-1
 550 680 l 1,49,-1
 550 -1 l 1,50,-1
 634 -1 l 1,51,-1
 634 312 l 1,52,-1
 835 312 l 1,53,-1
 835 -1 l 1,54,-1
 920 -1 l 1,55,-1
 920 680 l 1,44,-1
1379 -1 m 1,56,-1
 1217 680 l 1,57,-1
 1106 680 l 1,58,-1
 941 -1 l 1,59,-1
 1028 -1 l 1,60,-1
 1066 171 l 1,61,-1
 1256 171 l 1,62,-1
 1292 -1 l 1,63,-1
 1379 -1 l 1,56,-1
1791 -1 m 1,64,-1
 1655 297 l 1,65,-1
 1666 302 l 2,66,67
 1700 315 1700 315 1720 344 c 0,68,69
 1743 376 1743 376 1743 435 c 2,70,-1
 1743 529 l 2,71,72
 1743 609 1743 609 1699 645 c 0,73,74
 1656 680 1656 680 1575 680 c 2,75,-1
 1392 680 l 1,76,-1
 1392 -1 l 1,77,-1
 1477 -1 l 1,78,-1
 1477 281 l 1,79,-1
 1572 281 l 1,80,-1
 1698 -1 l 1,81,-1
 1791 -1 l 1,64,-1
2131 680 m 1,82,-1
 1805 680 l 1,83,-1
 1805 -1 l 1,84,-1
 2131 -1 l 1,85,-1
 2131 70 l 1,86,-1
 1890 70 l 1,87,-1
 1890 315 l 1,88,-1
 2106 315 l 1,89,-1
 2106 387 l 1,90,-1
 1890 387 l 1,91,-1
 1890 610 l 1,92,-1
 2131 610 l 1,93,-1
 2131 680 l 1,82,-1
1150 562 m 1,94,-1
 1172 562 l 1,95,-1
 1240 241 l 1,96,-1
 1082 241 l 1,97,-1
 1150 562 l 1,94,-1
1658 428 m 1,98,99
 1658 392 1658 392 1642 375 c 0,100,101
 1624 357 1624 357 1587 357 c 2,102,-1
 1477 357 l 1,103,-1
 1477 610 l 1,104,-1
 1587 610 l 2,105,106
 1624 610 1624 610 1641 594 c 0,107,108
 1658 576 1658 576 1658 540 c 2,109,-1
 1658 428 l 1,98,99
2349 243 m 1,110,111
 2349 56 2349 56 2216 -76 c 0,112,113
 2084 -209 2084 -209 1897 -209 c 2,114,-1
 468 -209 l 2,115,116
 281 -209 281 -209 149 -76 c 0,117,118
 16 56 16 56 16 243 c 2,119,-1
 16 404 l 2,120,121
 16 591 16 591 149 723 c 0,122,123
 281 856 281 856 468 856 c 2,124,-1
 1897 856 l 2,125,126
 2119 856 2119 856 2216 723 c 1,127,128
 2349 591 2349 591 2349 404 c 2,129,-1
 2349 243 l 1,110,111
EndSplineSet
Validated: 1
EndChar

StartChar: f
Encoding: 102 102 34
Width: 1450
Flags: W
HStem: -209 198<389.938 480 955 1057.64> 649 208<389.938 471 943 1046.7>
VStem: 28 361<99.9746 547.86>
LayerCount: 2
Fore
SplineSet
480 -209 m 1,0,1
 293 -209 293 -209 161 -77 c 0,2,3
 28 56 28 56 28 243 c 2,4,-1
 28 405 l 2,5,6
 28 592 28 592 161 724 c 0,7,8
 293 857 293 857 480 857 c 2,9,-1
 973 857 l 2,10,11
 1160 857 1160 857 1292 724 c 0,12,13
 1425 592 1425 592 1425 405 c 2,14,-1
 1425 243 l 2,15,16
 1425 56 1425 56 1292 -77 c 0,17,18
 1160 -209 1160 -209 973 -209 c 2,19,-1
 480 -209 l 1,0,1
682 60 m 1,20,-1
 471 60 l 1,21,-1
 471 649 l 1,22,-1
 389 649 l 1,23,-1
 389 -11 l 1,24,-1
 682 -11 l 1,25,-1
 682 60 l 1,20,-1
1115 217 m 1,26,27
 1115 259 1115 259 1100 288 c 0,28,29
 1084 317 1084 317 1054 333 c 1,30,31
 1078 350 1078 350 1092 378 c 0,32,33
 1106 405 1106 405 1106 442 c 2,34,-1
 1106 502 l 2,35,36
 1106 580 1106 580 1064 615 c 0,37,38
 1022 649 1022 649 943 649 c 2,39,-1
 834 649 l 1,40,-1
 834 578 l 1,41,-1
 955 578 l 2,42,43
 991 578 991 578 1007 562 c 256,44,45
 1023 546 1023 546 1023 510 c 2,46,-1
 1023 433 l 2,47,48
 1023 401 1023 401 1004 383 c 0,49,50
 983 364 983 364 955 364 c 2,51,-1
 863 364 l 1,52,-1
 863 294 l 1,53,-1
 964 294 l 2,54,55
 994 294 994 294 1013 275 c 0,56,57
 1033 256 1033 256 1033 225 c 2,58,-1
 1033 128 l 2,59,60
 1033 92 1033 92 1016 76 c 256,61,62
 999 60 999 60 963 60 c 2,63,-1
 834 60 l 1,64,-1
 834 -11 l 1,65,-1
 955 -11 l 2,66,67
 1041 -11 1041 -11 1078 24 c 0,68,69
 1115 60 1115 60 1115 137 c 2,70,-1
 1115 217 l 1,26,27
EndSplineSet
Validated: 1
EndChar

StartChar: g
Encoding: 103 103 35
Width: 1505
Flags: W
HStem: -209 197<399.537 495 988 1130.86> 647 210<399.537 481 988 1033.89>
VStem: 43 355<99.9746 547.86> 1037 403<99.9746 547.86>
LayerCount: 2
Fore
SplineSet
495 -209 m 1,0,1
 308 -209 308 -209 176 -77 c 0,2,3
 43 56 43 56 43 243 c 2,4,-1
 43 405 l 2,5,6
 43 592 43 592 176 724 c 0,7,8
 308 857 308 857 495 857 c 2,9,-1
 988 857 l 2,10,11
 1175 857 1175 857 1307 724 c 0,12,13
 1440 592 1440 592 1440 405 c 2,14,-1
 1440 243 l 2,15,16
 1440 56 1440 56 1307 -77 c 0,17,18
 1175 -209 1175 -209 988 -209 c 2,19,-1
 495 -209 l 1,0,1
398 -12 m 1,20,-1
 690 -12 l 1,21,-1
 690 60 l 1,22,-1
 481 60 l 1,23,-1
 481 647 l 1,24,-1
 398 647 l 1,25,-1
 398 -12 l 1,20,-1
824 523 m 1,26,-1
 956 573 l 1,27,-1
 956 59 l 1,28,-1
 834 59 l 1,29,-1
 834 -12 l 1,30,-1
 1139 -12 l 1,31,-1
 1139 59 l 1,32,-1
 1037 59 l 1,33,-1
 1037 647 l 1,34,-1
 947 647 l 1,35,-1
 824 600 l 1,36,-1
 824 523 l 1,26,-1
EndSplineSet
Validated: 1
EndChar

StartChar: h
Encoding: 104 104 36
Width: -674
Flags: W
HStem: -210 207<381.163 683 800 1117 1419 1503 1725 1818 1913 2226.6> 356 253<1504 1667.46> 680 175<381.163 465 918 1011 1419 1705.98 2031 2120.83>
VStem: 30 351<99.1396 546.025> 465 462<71 552> 683 117<-3 69> 1011 408<69 680> 1504 181<372.567 591.495> 1770 271<343.038 551.214> 1770 134<552 620.19> 2124 443<99.1396 546.025>
LayerCount: 2
Fore
SplineSet
482 855 m 1,0,-1
 2115 855 l 2,1,2
 2302 855 2302 855 2435 723 c 0,3,4
 2567 590 2567 590 2567 403 c 2,5,-1
 2567 242 l 2,6,7
 2567 55 2567 55 2435 -77 c 0,8,9
 2302 -210 2302 -210 2115 -210 c 2,10,-1
 482 -210 l 2,11,12
 295 -210 295 -210 163 -77 c 0,13,14
 30 55 30 55 30 242 c 2,15,-1
 30 403 l 2,16,17
 30 590 30 590 163 723 c 0,18,19
 295 855 295 855 482 855 c 1,0,-1
683 -3 m 1,20,-1
 683 71 l 1,21,-1
 465 71 l 1,22,-1
 465 680 l 1,23,-1
 381 680 l 1,24,-1
 381 -3 l 1,25,-1
 683 -3 l 1,20,-1
1117 -3 m 1,26,-1
 1117 69 l 1,27,-1
 1011 69 l 1,28,-1
 1011 680 l 1,29,-1
 918 680 l 1,30,-1
 790 630 l 1,31,-1
 790 552 l 1,32,-1
 927 603 l 1,33,-1
 927 69 l 1,34,-1
 800 69 l 1,35,-1
 800 -3 l 1,36,-1
 1117 -3 l 1,26,-1
1725 -3 m 1,37,-1
 1818 -3 l 1,38,-1
 1682 296 l 1,39,40
 1724 310 1724 310 1747 342 c 0,41,42
 1770 375 1770 375 1770 434 c 2,43,-1
 1770 527 l 2,44,45
 1770 608 1770 608 1727 644 c 0,46,47
 1683 680 1683 680 1602 680 c 2,48,-1
 1419 680 l 1,49,-1
 1419 -3 l 1,50,-1
 1503 -3 l 1,51,-1
 1503 279 l 1,52,-1
 1599 279 l 1,53,-1
 1725 -3 l 1,37,-1
2230 -3 m 1,54,-1
 2230 69 l 1,55,-1
 2124 69 l 1,56,-1
 2124 680 l 1,57,-1
 2031 680 l 1,58,-1
 1904 630 l 1,59,-1
 1904 552 l 1,60,-1
 2041 603 l 1,61,-1
 2041 69 l 1,62,-1
 1913 69 l 1,63,-1
 1913 -3 l 1,64,-1
 2230 -3 l 1,54,-1
1685 539 m 1,65,-1
 1685 427 l 2,66,67
 1685 390 1685 390 1668 372 c 0,68,69
 1651 356 1651 356 1614 356 c 2,70,-1
 1504 356 l 1,71,-1
 1504 609 l 1,72,-1
 1614 609 l 2,73,74
 1651 609 1651 609 1668 592 c 0,75,76
 1685 576 1685 576 1685 539 c 1,65,-1
EndSplineSet
Validated: 1
EndChar

StartChar: i
Encoding: 105 105 37
Width: 1451
Flags: W
LayerCount: 2
Fore
SplineSet
480 -209 m 1,0,1
 293 -209 293 -209 161 -77 c 0,2,3
 28 56 28 56 28 243 c 2,4,-1
 28 405 l 2,5,6
 28 592 28 592 161 724 c 0,7,8
 293 857 293 857 480 857 c 2,9,-1
 973 857 l 2,10,11
 1160 857 1160 857 1292 724 c 0,12,13
 1425 592 1425 592 1425 405 c 2,14,-1
 1425 243 l 2,15,16
 1425 56 1425 56 1292 -77 c 0,17,18
 1160 -209 1160 -209 973 -209 c 2,19,-1
 480 -209 l 1,0,1
646 -9 m 1,20,-1
 936 -9 l 1,21,-1
 936 62 l 1,22,-1
 726 62 l 1,23,-1
 726 647 l 1,24,-1
 646 647 l 1,25,-1
 646 -9 l 1,20,-1
EndSplineSet
Validated: 1
EndChar

StartChar: j
Encoding: 106 106 38
Width: 1451
Flags: W
HStem: -209 199<384.537 480 973 1115.86> 647 210<384.537 462 929 1030.06>
VStem: 28 352<99.9746 547.86> 1098 327<325.125 547.86>
LayerCount: 2
Fore
SplineSet
480 -209 m 1,0,1
 293 -209 293 -209 161 -77 c 0,2,3
 28 56 28 56 28 243 c 2,4,-1
 28 405 l 2,5,6
 28 592 28 592 161 724 c 0,7,8
 293 857 293 857 480 857 c 2,9,-1
 973 857 l 2,10,11
 1160 857 1160 857 1292 724 c 0,12,13
 1425 592 1425 592 1425 405 c 2,14,-1
 1425 243 l 2,15,16
 1425 56 1425 56 1292 -77 c 0,17,18
 1160 -209 1160 -209 973 -209 c 2,19,-1
 480 -209 l 1,0,1
671 61 m 1,20,-1
 462 61 l 1,21,-1
 462 647 l 1,22,-1
 380 647 l 1,23,-1
 380 -10 l 1,24,-1
 671 -10 l 1,25,-1
 671 61 l 1,20,-1
1117 61 m 1,26,-1
 893 61 l 1,27,-1
 1032 257 l 2,28,29
 1050 283 1050 283 1063 302 c 0,30,31
 1075 322 1075 322 1083 342 c 256,32,33
 1091 362 1091 362 1095 387 c 0,34,35
 1098 412 1098 412 1098 448 c 2,36,-1
 1098 487 l 2,37,38
 1098 567 1098 567 1054 607 c 0,39,40
 1011 647 1011 647 929 647 c 2,41,-1
 826 647 l 1,42,-1
 826 575 l 1,43,-1
 938 575 l 2,44,45
 974 575 974 575 996 555 c 0,46,47
 1016 533 1016 533 1016 505 c 2,48,-1
 1016 439 l 2,49,50
 1016 413 1016 413 1015 397 c 0,51,52
 1012 381 1012 381 1006 365 c 256,53,54
 1000 349 1000 349 989 332 c 0,55,56
 977 314 977 314 957 286 c 2,57,-1
 807 72 l 1,58,-1
 807 -10 l 1,59,-1
 1117 -10 l 1,60,-1
 1117 61 l 1,26,-1
EndSplineSet
Validated: 1
EndChar

StartChar: k
Encoding: 107 107 39
Width: -640
Flags: W
HStem: -210 207<401.163 701 749 1070 1481 1566 1787 1879 1967 2278.03> 358 253<1563 1726.46> 679 176<401.163 484 768 978.271 1481 1767.37 1986 2192.12>
VStem: 50 349<99.1396 546.025> 701 48<-3 72> 1563 181<374.567 593.464>
LayerCount: 2
Fore
SplineSet
502 855 m 1,0,-1
 2135 855 l 2,1,2
 2322 855 2322 855 2455 723 c 0,3,4
 2587 590 2587 590 2587 403 c 2,5,-1
 2587 242 l 2,6,7
 2587 55 2587 55 2455 -77 c 0,8,9
 2322 -210 2322 -210 2135 -210 c 2,10,-1
 502 -210 l 2,11,12
 315 -210 315 -210 183 -77 c 0,13,14
 50 55 50 55 50 242 c 2,15,-1
 50 403 l 2,16,17
 50 590 50 590 183 723 c 0,18,19
 315 855 315 855 502 855 c 1,0,-1
701 -3 m 1,20,-1
 701 72 l 1,21,-1
 484 72 l 1,22,-1
 484 679 l 1,23,-1
 399 679 l 1,24,-1
 399 -3 l 1,25,-1
 701 -3 l 1,20,-1
1070 -3 m 1,26,-1
 1070 72 l 1,27,-1
 839 72 l 1,28,-1
 982 275 l 2,29,30
 1001 302 1001 302 1014 321 c 0,31,32
 1027 342 1027 342 1035 363 c 256,33,34
 1043 384 1043 384 1046 409 c 0,35,36
 1050 435 1050 435 1050 472 c 2,37,-1
 1050 513 l 2,38,39
 1050 597 1050 597 1005 638 c 256,40,41
 960 679 960 679 875 679 c 2,42,-1
 768 679 l 1,43,-1
 768 604 l 1,44,-1
 886 604 l 2,45,46
 922 604 922 604 944 583 c 0,47,48
 966 561 966 561 966 531 c 2,49,-1
 966 463 l 2,50,51
 966 437 966 437 964 420 c 256,52,53
 962 403 962 403 956 387 c 0,54,55
 949 370 949 370 937 352 c 0,56,57
 925 333 925 333 905 305 c 2,58,-1
 749 83 l 1,59,-1
 749 -3 l 1,60,-1
 1070 -3 l 1,26,-1
1787 -3 m 1,61,-1
 1879 -3 l 1,62,-1
 1743 296 l 1,63,64
 1785 309 1785 309 1808 342 c 256,65,66
 1831 375 1831 375 1831 433 c 2,67,-1
 1831 527 l 2,68,69
 1831 607 1831 607 1788 643 c 256,70,71
 1745 679 1745 679 1664 679 c 2,72,-1
 1481 679 l 1,73,-1
 1481 -3 l 1,74,-1
 1566 -3 l 1,75,-1
 1566 279 l 1,76,-1
 1661 279 l 1,77,-1
 1787 -3 l 1,61,-1
2288 -3 m 1,78,-1
 2288 72 l 1,79,-1
 2057 72 l 1,80,-1
 2200 275 l 2,81,82
 2219 302 2219 302 2232 321 c 0,83,84
 2245 342 2245 342 2253 363 c 256,85,86
 2261 384 2261 384 2265 409 c 0,87,88
 2269 435 2269 435 2269 472 c 2,89,-1
 2269 513 l 2,90,91
 2269 597 2269 597 2223 638 c 0,92,93
 2178 679 2178 679 2093 679 c 2,94,-1
 1986 679 l 1,95,-1
 1986 604 l 1,96,-1
 2104 604 l 2,97,98
 2140 604 2140 604 2162 583 c 0,99,100
 2184 561 2184 561 2184 531 c 2,101,-1
 2184 463 l 2,102,103
 2184 437 2184 437 2182 420 c 0,104,105
 2181 403 2181 403 2174 387 c 0,106,107
 2167 370 2167 370 2155 352 c 0,108,109
 2143 333 2143 333 2123 305 c 2,110,-1
 1967 83 l 1,111,-1
 1967 -3 l 1,112,-1
 2288 -3 l 1,78,-1
1744 541 m 1,113,-1
 1744 428 l 2,114,115
 1744 392 1744 392 1727 374 c 0,116,117
 1710 358 1710 358 1673 358 c 2,118,-1
 1563 358 l 1,119,-1
 1563 611 l 1,120,-1
 1673 611 l 2,121,122
 1710 611 1710 611 1727 594 c 256,123,124
 1744 577 1744 577 1744 541 c 1,113,-1
EndSplineSet
Validated: 1
EndChar

StartChar: l
Encoding: 108 108 40
Width: 1455
Flags: W
HStem: -209 199<368.496 448 970 1073.84> 645 212<368.496 645.324 958 1057.64>
VStem: 28 339<99.9746 547.86> 453 174<343.536 554.495> 1129 296<99.9746 298.676>
LayerCount: 2
Fore
SplineSet
480 -209 m 1,0,1
 293 -209 293 -209 161 -77 c 0,2,3
 28 56 28 56 28 243 c 2,4,-1
 28 405 l 2,5,6
 28 592 28 592 161 724 c 0,7,8
 293 857 293 857 480 857 c 2,9,-1
 973 857 l 2,10,11
 1160 857 1160 857 1292 724 c 0,12,13
 1425 592 1425 592 1425 405 c 2,14,-1
 1425 243 l 2,15,16
 1425 56 1425 56 1292 -77 c 0,17,18
 1160 -209 1160 -209 973 -209 c 2,19,-1
 480 -209 l 1,0,1
750 -10 m 1,20,-1
 620 277 l 1,21,22
 660 290 660 290 682 321 c 256,23,24
 704 352 704 352 704 409 c 2,25,-1
 704 499 l 2,26,27
 704 577 704 577 662 611 c 0,28,29
 621 645 621 645 543 645 c 2,30,-1
 367 645 l 1,31,-1
 367 -10 l 1,32,-1
 448 -10 l 1,33,-1
 448 261 l 1,34,-1
 540 261 l 1,35,-1
 661 -10 l 1,36,-1
 750 -10 l 1,20,-1
1129 216 m 1,37,38
 1129 258 1129 258 1114 287 c 0,39,40
 1099 315 1099 315 1068 331 c 1,41,42
 1093 348 1093 348 1106 375 c 0,43,44
 1120 402 1120 402 1120 439 c 2,45,-1
 1120 499 l 2,46,47
 1120 577 1120 577 1078 611 c 256,48,49
 1036 645 1036 645 958 645 c 2,50,-1
 850 645 l 1,51,-1
 850 574 l 1,52,-1
 970 574 l 2,53,54
 1006 574 1006 574 1022 558 c 0,55,56
 1038 543 1038 543 1038 507 c 2,57,-1
 1038 430 l 2,58,59
 1038 398 1038 398 1019 380 c 0,60,61
 998 362 998 362 970 362 c 2,62,-1
 879 362 l 1,63,-1
 879 291 l 1,64,-1
 980 291 l 2,65,66
 1009 291 1009 291 1028 273 c 0,67,68
 1048 255 1048 255 1048 224 c 2,69,-1
 1048 128 l 2,70,71
 1048 92 1048 92 1031 76 c 256,72,73
 1014 60 1014 60 978 60 c 2,74,-1
 850 60 l 1,75,-1
 850 -10 l 1,76,-1
 970 -10 l 2,77,78
 1055 -10 1055 -10 1093 25 c 0,79,80
 1129 60 1129 60 1129 137 c 2,81,-1
 1129 216 l 1,37,38
627 395 m 1,82,83
 627 360 627 360 611 343 c 0,84,85
 594 327 594 327 558 327 c 2,86,-1
 453 327 l 1,87,-1
 453 571 l 1,88,-1
 558 571 l 2,89,90
 594 571 594 571 611 555 c 0,91,92
 627 539 627 539 627 503 c 2,93,-1
 627 395 l 1,82,83
EndSplineSet
Validated: 1
EndChar

StartChar: m
Encoding: 109 109 41
Width: 1505
Flags: W
HStem: -209 199<393.496 475 998 1140.86> 648 209<393.496 672.02 998 1071.7>
VStem: 53 340<99.9746 547.86> 480 175<356.536 567.495> 731 129<525 591.315> 1072 378<99.9746 547.86>
LayerCount: 2
Fore
SplineSet
505 -209 m 1,0,1
 318 -209 318 -209 186 -77 c 0,2,3
 53 56 53 56 53 243 c 2,4,-1
 53 405 l 2,5,6
 53 592 53 592 186 724 c 0,7,8
 318 857 318 857 505 857 c 2,9,-1
 998 857 l 2,10,11
 1185 857 1185 857 1317 724 c 0,12,13
 1450 592 1450 592 1450 405 c 2,14,-1
 1450 243 l 2,15,16
 1450 56 1450 56 1317 -77 c 0,17,18
 1185 -209 1185 -209 998 -209 c 2,19,-1
 505 -209 l 1,0,1
777 -10 m 1,20,-1
 647 279 l 1,21,22
 687 292 687 292 709 323 c 0,23,24
 731 355 731 355 731 411 c 2,25,-1
 731 501 l 2,26,27
 731 580 731 580 689 614 c 256,28,29
 647 648 647 648 570 648 c 2,30,-1
 393 648 l 1,31,-1
 393 -10 l 1,32,-1
 475 -10 l 1,33,-1
 475 263 l 1,34,-1
 566 263 l 1,35,-1
 688 -10 l 1,36,-1
 777 -10 l 1,20,-1
1174 61 m 1,37,-1
 1072 61 l 1,38,-1
 1072 648 l 1,39,-1
 983 648 l 1,40,-1
 860 601 l 1,41,-1
 860 525 l 1,42,-1
 992 574 l 1,43,-1
 992 61 l 1,44,-1
 869 61 l 1,45,-1
 869 -10 l 1,46,-1
 1174 -10 l 1,47,-1
 1174 61 l 1,37,-1
655 409 m 1,48,49
 655 373 655 373 639 356 c 0,50,51
 622 340 622 340 586 340 c 2,52,-1
 480 340 l 1,53,-1
 480 584 l 1,54,-1
 586 584 l 2,55,56
 622 584 622 584 639 568 c 0,57,58
 655 552 655 552 655 516 c 2,59,-1
 655 409 l 1,48,49
EndSplineSet
Validated: 1
EndChar

StartChar: n
Encoding: 110 110 42
Width: 1496
Flags: W
VStem: 53 538<99.9746 547.86> 673 176<349.505 560.495>
LayerCount: 2
Fore
SplineSet
505 -209 m 1,0,1
 318 -209 318 -209 186 -77 c 0,2,3
 53 56 53 56 53 243 c 2,4,-1
 53 405 l 2,5,6
 53 592 53 592 186 724 c 0,7,8
 318 857 318 857 505 857 c 2,9,-1
 998 857 l 2,10,11
 1185 857 1185 857 1317 724 c 0,12,13
 1450 592 1450 592 1450 405 c 2,14,-1
 1450 243 l 2,15,16
 1450 56 1450 56 1317 -77 c 0,17,18
 1185 -209 1185 -209 998 -209 c 2,19,-1
 505 -209 l 1,0,1
849 401 m 1,20,21
 849 365 849 365 832 349 c 0,22,23
 815 332 815 332 780 332 c 2,24,-1
 673 332 l 1,25,-1
 673 577 l 1,26,-1
 780 577 l 2,27,28
 815 577 815 577 832 561 c 256,29,30
 849 545 849 545 849 509 c 2,31,-1
 849 401 l 1,20,21
975 -10 m 1,32,-1
 845 278 l 1,33,34
 885 291 885 291 907 323 c 0,35,36
 930 354 930 354 930 410 c 2,37,-1
 930 500 l 2,38,39
 930 578 930 578 888 612 c 0,40,41
 846 647 846 647 768 647 c 2,42,-1
 591 647 l 1,43,-1
 591 -10 l 1,44,-1
 673 -10 l 1,45,-1
 673 262 l 1,46,-1
 765 262 l 1,47,-1
 886 -10 l 1,48,-1
 975 -10 l 1,32,-1
EndSplineSet
Validated: 1
EndChar

StartChar: o
Encoding: 111 111 43
Width: 1499
Flags: W
HStem: -209 199<377.697 458 998 1140.86> 648 209<377.697 654.452 969 1066.19>
VStem: 53 324<99.9746 547.86> 455 175<349.505 560.495> 1138 312<326.899 547.86>
LayerCount: 2
Fore
SplineSet
505 -209 m 1,0,1
 318 -209 318 -209 186 -77 c 0,2,3
 53 56 53 56 53 243 c 2,4,-1
 53 405 l 2,5,6
 53 592 53 592 186 724 c 0,7,8
 318 857 318 857 505 857 c 2,9,-1
 998 857 l 2,10,11
 1185 857 1185 857 1317 724 c 0,12,13
 1450 592 1450 592 1450 405 c 2,14,-1
 1450 243 l 2,15,16
 1450 56 1450 56 1317 -77 c 0,17,18
 1185 -209 1185 -209 998 -209 c 2,19,-1
 505 -209 l 1,0,1
761 -10 m 1,20,-1
 630 278 l 1,21,22
 671 291 671 291 693 323 c 0,23,24
 715 354 715 354 715 410 c 2,25,-1
 715 501 l 2,26,27
 715 579 715 579 673 613 c 0,28,29
 631 648 631 648 553 648 c 2,30,-1
 377 648 l 1,31,-1
 377 -10 l 1,32,-1
 458 -10 l 1,33,-1
 458 262 l 1,34,-1
 550 262 l 1,35,-1
 672 -10 l 1,36,-1
 761 -10 l 1,20,-1
1157 60 m 1,37,-1
 933 60 l 1,38,-1
 1072 257 l 2,39,40
 1091 284 1091 284 1102 303 c 0,41,42
 1115 322 1115 322 1122 343 c 0,43,44
 1131 362 1131 362 1134 388 c 0,45,46
 1138 413 1138 413 1138 449 c 2,47,-1
 1138 488 l 2,48,49
 1138 569 1138 569 1094 608 c 0,50,51
 1051 648 1051 648 969 648 c 2,52,-1
 865 648 l 1,53,-1
 865 576 l 1,54,-1
 978 576 l 2,55,56
 1014 576 1014 576 1035 555 c 256,57,58
 1056 534 1056 534 1056 506 c 2,59,-1
 1056 440 l 2,60,61
 1056 414 1056 414 1054 398 c 0,62,63
 1053 381 1053 381 1047 366 c 0,64,65
 1040 350 1040 350 1028 333 c 0,66,67
 1016 314 1016 314 997 287 c 2,68,-1
 846 72 l 1,69,-1
 846 -10 l 1,70,-1
 1157 -10 l 1,71,-1
 1157 60 l 1,37,-1
630 401 m 1,72,73
 630 365 630 365 614 349 c 0,74,75
 597 333 597 333 561 333 c 2,76,-1
 455 333 l 1,77,-1
 455 577 l 1,78,-1
 561 577 l 2,79,80
 597 577 597 577 614 561 c 0,81,82
 630 545 630 545 630 509 c 2,83,-1
 630 401 l 1,72,73
EndSplineSet
Validated: 1
EndChar

StartChar: p
Encoding: 112 112 44
Width: -319
Flags: W
HStem: -210 208<314.14 479.062 586 670 1086 1171 1343 1602 1686.94 1934.06 2039 2118 2270 2409 2450 2638.03> 72 239<2500.75 2655.34> 387 216<2540.69 2703.77> 678 177<314.14 475.603 586 872.369 932 1325 1343 1602 1690.4 1930.6 2039 2177 2330 2409 2503.94 2638.03>
VStem: 5 156<99.1396 546.025> 243 219<91.6892 578.342> 550 36<74.6562 600.203> 670 182<346.536 582.433> 936 150<322.214 602.078> 1171 260<69 603> 1325 18<606 677> 1698 219<91.72 578.996> 2004 35<76.4399 598.407> 2118 21<490.492 516> 2308 22<158 184.563> 2409 269<94.689 291.404> 2409 41<-2 72> 2409 25<399.666 587.958> 2763 184<99.1396 327.188>
LayerCount: 2
Fore
SplineSet
323 601 m 1,0,-1
 381 601 l 2,1,2
 419 601 419 601 440 579 c 0,3,4
 462 558 462 558 462 528 c 2,5,-1
 462 142 l 2,6,7
 462 113 462 113 440 91 c 0,8,9
 419 70 419 70 381 70 c 2,10,-1
 323 70 l 2,11,12
 287 70 287 70 265 91 c 0,13,14
 243 113 243 113 243 142 c 2,15,-1
 243 528 l 2,16,17
 243 558 243 558 266 579 c 0,18,19
 286 601 286 601 323 601 c 1,0,-1
1778 601 m 1,20,-1
 1836 601 l 2,21,22
 1874 601 1874 601 1895 579 c 0,23,24
 1917 558 1917 558 1917 528 c 2,25,-1
 1917 142 l 2,26,27
 1917 114 1917 114 1895 91 c 0,28,29
 1874 70 1874 70 1836 70 c 2,30,-1
 1778 70 l 2,31,32
 1741 70 1741 70 1720 91 c 0,33,34
 1698 114 1698 114 1698 142 c 2,35,-1
 1698 528 l 2,36,37
 1698 558 1698 558 1720 579 c 0,38,39
 1741 601 1741 601 1778 601 c 1,20,-1
670 599 m 1,40,-1
 782 599 l 2,41,42
 818 599 818 599 835 583 c 0,43,44
 852 565 852 565 852 529 c 2,45,-1
 852 400 l 2,46,47
 852 363 852 363 834 346 c 0,48,49
 818 329 818 329 782 329 c 2,50,-1
 670 329 l 1,51,-1
 670 599 l 1,40,-1
550 162 m 1,52,-1
 550 512 l 2,53,54
 550 596 550 596 504 637 c 0,55,56
 459 677 459 677 375 677 c 2,57,-1
 336 677 l 2,58,59
 252 677 252 677 207 637 c 0,60,61
 161 596 161 596 161 512 c 2,62,-1
 161 162 l 2,63,64
 161 79 161 79 207 38 c 0,65,66
 252 -2 252 -2 336 -2 c 2,67,-1
 375 -2 l 2,68,69
 459 -2 459 -2 504 38 c 0,70,71
 550 79 550 79 550 162 c 1,52,-1
936 415 m 1,72,-1
 936 526 l 2,73,74
 936 606 936 606 893 642 c 256,75,76
 850 678 850 678 769 678 c 2,77,-1
 586 678 l 1,78,-1
 586 -2 l 1,79,-1
 670 -2 l 1,80,-1
 670 262 l 1,81,-1
 771 262 l 2,82,83
 851 262 851 262 894 298 c 0,84,85
 936 335 936 335 936 415 c 1,72,-1
1325 603 m 1,86,-1
 1325 678 l 1,87,-1
 932 678 l 1,88,-1
 932 603 l 1,89,-1
 1086 603 l 1,90,-1
 1086 -2 l 1,91,-1
 1171 -2 l 1,92,-1
 1171 603 l 1,93,-1
 1325 603 l 1,86,-1
1602 606 m 1,94,-1
 1602 677 l 1,95,-1
 1343 677 l 1,96,-1
 1343 606 l 1,97,-1
 1431 606 l 1,98,-1
 1431 69 l 1,99,-1
 1343 69 l 1,100,-1
 1343 -2 l 1,101,-1
 1602 -2 l 1,102,-1
 1602 69 l 1,103,-1
 1515 69 l 1,104,-1
 1515 606 l 1,105,-1
 1602 606 l 1,94,-1
2004 162 m 1,106,-1
 2004 512 l 2,107,108
 2004 596 2004 596 1959 637 c 0,109,110
 1914 677 1914 677 1830 677 c 2,111,-1
 1791 677 l 2,112,113
 1707 677 1707 677 1662 637 c 0,114,115
 1616 596 1616 596 1616 512 c 2,116,-1
 1616 162 l 2,117,118
 1616 79 1616 79 1662 38 c 0,119,120
 1707 -2 1707 -2 1791 -2 c 2,121,-1
 1830 -2 l 2,122,123
 1914 -2 1914 -2 1959 38 c 0,124,125
 2004 79 2004 79 2004 162 c 1,106,-1
2409 -2 m 1,126,-1
 2409 678 l 1,127,-1
 2330 678 l 1,128,-1
 2330 158 l 1,129,-1
 2308 156 l 1,130,-1
 2177 678 l 1,131,-1
 2039 678 l 1,132,-1
 2039 -2 l 1,133,-1
 2118 -2 l 1,134,-1
 2118 516 l 1,135,-1
 2139 519 l 1,136,-1
 2270 -2 l 1,137,-1
 2409 -2 l 1,126,-1
2763 163 m 1,138,-1
 2763 228 l 2,139,140
 2763 311 2763 311 2724 349 c 0,141,142
 2684 387 2684 387 2617 387 c 2,143,-1
 2588 387 l 2,144,145
 2556 387 2556 387 2537 408 c 0,146,147
 2518 428 2518 428 2518 457 c 2,148,-1
 2518 531 l 2,149,150
 2518 560 2518 560 2540 582 c 0,151,152
 2562 603 2562 603 2599 603 c 2,153,-1
 2748 603 l 1,154,-1
 2748 678 l 1,155,-1
 2608 678 l 2,156,157
 2524 678 2524 678 2479 638 c 0,158,159
 2434 597 2434 597 2434 512 c 2,160,-1
 2434 476 l 2,161,162
 2434 393 2434 393 2476 352 c 0,163,164
 2519 311 2519 311 2589 311 c 2,165,-1
 2618 311 l 2,166,167
 2650 311 2650 311 2664 292 c 256,168,169
 2678 273 2678 273 2678 246 c 2,170,-1
 2678 144 l 2,171,172
 2678 116 2678 116 2656 94 c 0,173,174
 2635 72 2635 72 2598 72 c 2,175,-1
 2450 72 l 1,176,-1
 2450 -2 l 1,177,-1
 2588 -2 l 2,178,179
 2672 -2 2672 -2 2718 38 c 0,180,181
 2763 79 2763 79 2763 163 c 1,138,-1
457 855 m 1,182,-1
 2495 855 l 2,183,184
 2682 855 2682 855 2815 723 c 0,185,186
 2947 590 2947 590 2947 403 c 2,187,-1
 2947 242 l 2,188,189
 2947 55 2947 55 2815 -77 c 0,190,191
 2682 -210 2682 -210 2495 -210 c 2,192,-1
 457 -210 l 2,193,194
 270 -210 270 -210 138 -77 c 0,195,196
 5 55 5 55 5 242 c 2,197,-1
 5 403 l 2,198,199
 5 590 5 590 138 723 c 0,200,201
 270 855 270 855 457 855 c 1,182,-1
EndSplineSet
Validated: 1
EndChar

StartChar: q
Encoding: 113 113 45
Width: 1130
Flags: W
HStem: 136 54<312 338.688 807.125 814> 459 52<311 337.828 786.312 813>
LayerCount: 2
Fore
SplineSet
54 136 m 1,0,1
 30 136 30 136 30 161 c 2,2,-1
 30 487 l 2,3,4
 30 511 30 511 54 511 c 2,5,-1
 315 511 l 2,6,7
 339 511 339 511 357 495 c 2,8,-1
 522 340 l 2,9,10
 529 333 529 333 529 324 c 0,11,12
 529 314 529 314 522 306 c 2,13,-1
 357 153 l 2,14,15
 339 136 339 136 315 136 c 2,16,-1
 54 136 l 1,0,1
751 -185 m 1,17,18
 751 -210 751 -210 727 -210 c 2,19,-1
 400 -210 l 2,20,21
 376 -210 376 -210 376 -185 c 2,22,-1
 376 75 l 2,23,24
 376 99 376 99 393 117 c 2,25,-1
 547 283 l 2,26,27
 556 292 556 292 564 292 c 0,28,-1
 581 283 l 2,29,-1
 734 117 l 2,30,31
 751 99 751 99 751 75 c 2,32,-1
 751 -185 l 1,17,18
1073 511 m 1,33,34
 1097 511 1097 511 1097 487 c 2,35,-1
 1097 161 l 2,36,37
 1097 136 1097 136 1073 136 c 2,38,-1
 812 136 l 2,39,40
 788 136 788 136 770 153 c 2,41,-1
 605 308 l 2,42,43
 598 315 598 315 598 325 c 256,44,45
 598 335 598 335 605 341 c 2,46,-1
 770 495 l 2,47,48
 788 511 788 511 812 511 c 2,49,-1
 1073 511 l 1,33,34
727 857 m 1,50,51
 751 857 751 857 751 833 c 2,52,-1
 751 573 l 2,53,54
 751 549 751 549 734 531 c 2,55,-1
 579 366 l 2,56,57
 571 357 571 357 563 357 c 0,58,59
 554 357 554 357 546 366 c 2,60,-1
 393 531 l 2,61,62
 376 549 376 549 376 573 c 2,63,-1
 376 833 l 2,64,65
 376 857 376 857 400 857 c 2,66,-1
 727 857 l 1,50,51
666 324 m 1,67,-1
 807 192 l 2,68,69
 811 190 811 190 814 190 c 2,70,-1
 1044 190 l 1,71,-1
 1044 459 l 1,72,-1
 813 459 l 2,73,74
 809 457 809 457 806 455 c 2,75,-1
 666 324 l 1,67,-1
459 324 m 1,76,-1
 318 456 l 2,77,78
 315 458 315 458 311 459 c 2,79,-1
 81 459 l 1,80,-1
 81 190 l 1,81,-1
 312 190 l 2,82,83
 316 191 316 191 319 193 c 2,84,-1
 459 324 l 1,76,-1
EndSplineSet
Validated: 1
EndChar

StartChar: r
Encoding: 114 114 46
Width: 1130
Flags: W
VStem: 376 54<74 99.8281 548.453 576> 698 53<74 100.688 550.172 576>
LayerCount: 2
Fore
SplineSet
376 833 m 1,0,1
 376 858 376 858 401 858 c 2,2,-1
 727 858 l 2,3,4
 751 858 751 858 751 833 c 2,5,-1
 751 573 l 2,6,7
 751 548 751 548 735 530 c 2,8,-1
 580 366 l 2,9,10
 573 358 573 358 563 358 c 0,11,12
 554 358 554 358 546 366 c 2,13,-1
 393 530 l 2,14,15
 376 548 376 548 376 573 c 2,16,-1
 376 833 l 1,0,1
55 136 m 1,17,18
 30 136 30 136 30 161 c 2,19,-1
 30 487 l 2,20,21
 30 512 30 512 55 512 c 2,22,-1
 315 512 l 2,23,24
 339 512 339 512 357 495 c 2,25,-1
 522 340 l 2,26,27
 531 332 531 332 531 323.5 c 128,-1,28
 531 315 531 315 522 307 c 2,29,-1
 357 153 l 2,30,31
 339 136 339 136 315 136 c 2,32,-1
 55 136 l 1,17,18
751 -185 m 1,33,34
 751 -210 751 -210 727 -210 c 2,35,-1
 401 -210 l 2,36,37
 376 -210 376 -210 376 -185 c 2,38,-1
 376 75 l 2,39,40
 376 100 376 100 393 118 c 2,41,-1
 548 282 l 2,42,43
 554 290 554 290 565 290 c 0,44,45
 574 290 574 290 581 282 c 2,46,-1
 735 118 l 2,47,48
 751 100 751 100 751 75 c 2,49,-1
 751 -185 l 1,33,34
1097 161 m 1,50,51
 1097 136 1097 136 1073 136 c 2,52,-1
 813 136 l 2,53,54
 788 136 788 136 770 153 c 2,55,-1
 606 308 l 2,56,57
 597 316 597 316 597 324.5 c 128,-1,58
 597 333 597 333 606 341 c 2,59,-1
 770 495 l 2,60,61
 788 512 788 512 813 512 c 2,62,-1
 1073 512 l 2,63,64
 1097 512 1097 512 1097 487 c 2,65,-1
 1097 161 l 1,50,51
564 221 m 1,66,-1
 432 80 l 2,67,68
 430 77 430 77 430 74 c 2,69,-1
 430 -156 l 1,70,-1
 698 -156 l 1,71,-1
 698 74 l 2,72,73
 697 78 697 78 695 81 c 2,74,-1
 564 221 l 1,66,-1
563 429 m 1,75,-1
 695 570 l 2,76,77
 698 573 698 573 698 576 c 2,78,-1
 698 807 l 1,79,-1
 430 807 l 1,80,-1
 430 576 l 2,81,82
 430 571 430 571 433 568 c 6,83,-1
 563 429 l 1,75,-1
EndSplineSet
Validated: 1
EndChar

StartChar: s
Encoding: 115 115 47
Width: 1130
Flags: W
HStem: 136 54<310 336.688 792.031 819> 458 54<309 334.969 791.172 817>
VStem: 376 54<74 99.8281 548.453 576> 698 53<74 100.688 550.172 576>
LayerCount: 2
Fore
SplineSet
30 487 m 1,0,1
 30 512 30 512 55 512 c 2,2,-1
 315 512 l 2,3,4
 339 512 339 512 357 495 c 2,5,-1
 522 340 l 2,6,7
 531 332 531 332 531 323.5 c 128,-1,8
 531 315 531 315 522 307 c 2,9,-1
 357 153 l 2,10,11
 339 136 339 136 315 136 c 2,12,-1
 55 136 l 2,13,14
 30 136 30 136 30 161 c 2,15,-1
 30 487 l 1,0,1
457 323 m 1,16,-1
 315 456 l 2,17,18
 312 458 312 458 309 458 c 2,19,-1
 79 458 l 1,20,-1
 79 190 l 1,21,-1
 310 190 l 2,22,23
 314 190 314 190 317 193 c 2,24,-1
 457 323 l 1,16,-1
376 833 m 1,25,26
 376 858 376 858 401 858 c 2,27,-1
 727 858 l 2,28,29
 751 858 751 858 751 833 c 2,30,-1
 751 573 l 2,31,32
 751 548 751 548 735 530 c 2,33,-1
 580 366 l 2,34,35
 573 358 573 358 563 358 c 0,36,37
 554 358 554 358 546 366 c 2,38,-1
 393 530 l 2,39,40
 376 548 376 548 376 573 c 2,41,-1
 376 833 l 1,25,26
751 -185 m 1,42,43
 751 -210 751 -210 727 -210 c 2,44,-1
 401 -210 l 2,45,46
 376 -210 376 -210 376 -185 c 2,47,-1
 376 75 l 2,48,49
 376 100 376 100 393 118 c 2,50,-1
 548 282 l 2,51,52
 554 290 554 290 565 290 c 0,53,54
 574 290 574 290 581 282 c 2,55,-1
 735 118 l 2,56,57
 751 100 751 100 751 75 c 2,58,-1
 751 -185 l 1,42,43
1097 161 m 1,59,60
 1097 136 1097 136 1073 136 c 2,61,-1
 813 136 l 2,62,63
 788 136 788 136 770 153 c 2,64,-1
 606 308 l 2,65,66
 597 316 597 316 597 324.5 c 128,-1,67
 597 333 597 333 606 341 c 2,68,-1
 770 495 l 2,69,70
 788 512 788 512 813 512 c 2,71,-1
 1073 512 l 2,72,73
 1097 512 1097 512 1097 487 c 2,74,-1
 1097 161 l 1,59,60
564 221 m 1,75,-1
 432 80 l 2,76,77
 430 77 430 77 430 74 c 2,78,-1
 430 -156 l 1,79,-1
 698 -156 l 1,80,-1
 698 74 l 2,81,82
 697 78 697 78 695 81 c 2,83,-1
 564 221 l 1,75,-1
670 325 m 1,84,-1
 812 192 l 2,85,86
 815 190 815 190 819 190 c 2,87,-1
 1049 190 l 1,88,-1
 1049 458 l 1,89,-1
 817 458 l 2,90,91
 814 458 814 458 811 455 c 2,92,-1
 670 325 l 1,84,-1
563 429 m 1,93,-1
 695 570 l 2,94,95
 698 573 698 573 698 576 c 2,96,-1
 698 807 l 1,97,-1
 430 807 l 1,98,-1
 430 576 l 2,99,100
 430 571 430 571 433 568 c 2,101,-1
 563 429 l 1,93,-1
EndSplineSet
Validated: 1
EndChar

StartChar: t
Encoding: 116 116 48
Width: 1130
Flags: W
HStem: 136 54<310 336.688> 458 54<309 334.969>
LayerCount: 2
Fore
SplineSet
30 487 m 1,0,1
 30 512 30 512 55 512 c 2,2,-1
 315 512 l 2,3,4
 339 512 339 512 357 495 c 2,5,-1
 522 340 l 2,6,7
 531 332 531 332 531 323.5 c 128,-1,8
 531 315 531 315 522 307 c 2,9,-1
 357 153 l 2,10,11
 339 136 339 136 315 136 c 2,12,-1
 55 136 l 2,13,14
 30 136 30 136 30 161 c 2,15,-1
 30 487 l 1,0,1
457 323 m 1,16,-1
 315 456 l 2,17,18
 312 458 312 458 309 458 c 2,19,-1
 79 458 l 1,20,-1
 79 190 l 1,21,-1
 310 190 l 2,22,23
 314 190 314 190 317 193 c 2,24,-1
 457 323 l 1,16,-1
376 833 m 1,25,26
 376 858 376 858 401 858 c 2,27,-1
 727 858 l 2,28,29
 751 858 751 858 751 833 c 2,30,-1
 751 573 l 2,31,32
 751 548 751 548 735 530 c 2,33,-1
 580 366 l 2,34,35
 573 358 573 358 563 358 c 0,36,37
 554 358 554 358 546 366 c 2,38,-1
 393 530 l 2,39,40
 376 548 376 548 376 573 c 2,41,-1
 376 833 l 1,25,26
751 -185 m 1,42,43
 751 -210 751 -210 727 -210 c 2,44,-1
 401 -210 l 2,45,46
 376 -210 376 -210 376 -185 c 2,47,-1
 376 75 l 2,48,49
 376 100 376 100 393 118 c 2,50,-1
 548 282 l 2,51,52
 554 290 554 290 565 290 c 0,53,54
 574 290 574 290 581 282 c 2,55,-1
 735 118 l 2,56,57
 751 100 751 100 751 75 c 2,58,-1
 751 -185 l 1,42,43
1097 161 m 1,59,60
 1097 136 1097 136 1073 136 c 2,61,-1
 813 136 l 2,62,63
 788 136 788 136 770 153 c 2,64,-1
 606 308 l 2,65,66
 597 316 597 316 597 324.5 c 128,-1,67
 597 333 597 333 606 341 c 2,68,-1
 770 495 l 2,69,70
 788 512 788 512 813 512 c 2,71,-1
 1073 512 l 2,72,73
 1097 512 1097 512 1097 487 c 2,74,-1
 1097 161 l 1,59,60
EndSplineSet
Validated: 1
EndChar

StartChar: u
Encoding: 117 117 49
Width: 1130
Flags: W
HStem: 136 54<792.031 819> 458 54<791.172 817>
LayerCount: 2
Fore
SplineSet
30 487 m 1,0,1
 30 512 30 512 55 512 c 2,2,-1
 315 512 l 2,3,4
 339 512 339 512 357 495 c 2,5,-1
 522 340 l 2,6,7
 531 332 531 332 531 323.5 c 128,-1,8
 531 315 531 315 522 307 c 2,9,-1
 357 153 l 2,10,11
 339 136 339 136 315 136 c 2,12,-1
 55 136 l 2,13,14
 30 136 30 136 30 161 c 2,15,-1
 30 487 l 1,0,1
376 833 m 1,16,17
 376 858 376 858 401 858 c 2,18,-1
 727 858 l 2,19,20
 751 858 751 858 751 833 c 2,21,-1
 751 573 l 2,22,23
 751 548 751 548 735 530 c 2,24,-1
 580 366 l 2,25,26
 573 358 573 358 563 358 c 0,27,28
 554 358 554 358 546 366 c 2,29,-1
 393 530 l 2,30,31
 376 548 376 548 376 573 c 2,32,-1
 376 833 l 1,16,17
751 -185 m 1,33,34
 751 -210 751 -210 727 -210 c 2,35,-1
 401 -210 l 2,36,37
 376 -210 376 -210 376 -185 c 2,38,-1
 376 75 l 2,39,40
 376 100 376 100 393 118 c 2,41,-1
 548 282 l 2,42,43
 554 290 554 290 565 290 c 0,44,45
 574 290 574 290 581 282 c 2,46,-1
 735 118 l 2,47,48
 751 100 751 100 751 75 c 2,49,-1
 751 -185 l 1,33,34
1097 161 m 1,50,51
 1097 136 1097 136 1073 136 c 2,52,-1
 813 136 l 2,53,54
 788 136 788 136 770 153 c 2,55,-1
 606 308 l 2,56,57
 597 316 597 316 597 324.5 c 128,-1,58
 597 333 597 333 606 341 c 2,59,-1
 770 495 l 2,60,61
 788 512 788 512 813 512 c 2,62,-1
 1073 512 l 2,63,64
 1097 512 1097 512 1097 487 c 2,65,-1
 1097 161 l 1,50,51
670 325 m 1,66,-1
 812 192 l 2,67,68
 815 190 815 190 819 190 c 2,69,-1
 1049 190 l 1,70,-1
 1049 458 l 1,71,-1
 817 458 l 2,72,73
 814 458 814 458 811 455 c 2,74,-1
 670 325 l 1,66,-1
EndSplineSet
Validated: 1
EndChar

StartChar: v
Encoding: 118 118 50
Width: 1130
Flags: W
VStem: 376 54<74 99.8281> 698 53<74 100.688>
LayerCount: 2
Fore
SplineSet
30 487 m 1,0,1
 30 512 30 512 55 512 c 2,2,-1
 315 512 l 2,3,4
 339 512 339 512 357 495 c 2,5,-1
 522 340 l 2,6,7
 531 332 531 332 531 323.5 c 128,-1,8
 531 315 531 315 522 307 c 2,9,-1
 357 153 l 2,10,11
 339 136 339 136 315 136 c 2,12,-1
 55 136 l 2,13,14
 30 136 30 136 30 161 c 2,15,-1
 30 487 l 1,0,1
376 833 m 1,16,17
 376 858 376 858 401 858 c 2,18,-1
 727 858 l 2,19,20
 751 858 751 858 751 833 c 2,21,-1
 751 573 l 2,22,23
 751 548 751 548 735 530 c 2,24,-1
 580 366 l 2,25,26
 573 358 573 358 563 358 c 0,27,28
 554 358 554 358 546 366 c 2,29,-1
 393 530 l 2,30,31
 376 548 376 548 376 573 c 2,32,-1
 376 833 l 1,16,17
751 -185 m 1,33,34
 751 -210 751 -210 727 -210 c 2,35,-1
 401 -210 l 2,36,37
 376 -210 376 -210 376 -185 c 2,38,-1
 376 75 l 2,39,40
 376 100 376 100 393 118 c 2,41,-1
 548 282 l 2,42,43
 554 290 554 290 565 290 c 0,44,45
 574 290 574 290 581 282 c 2,46,-1
 735 118 l 2,47,48
 751 100 751 100 751 75 c 2,49,-1
 751 -185 l 1,33,34
1097 161 m 1,50,51
 1097 136 1097 136 1073 136 c 2,52,-1
 813 136 l 2,53,54
 788 136 788 136 770 153 c 2,55,-1
 606 308 l 2,56,57
 597 316 597 316 597 324.5 c 128,-1,58
 597 333 597 333 606 341 c 2,59,-1
 770 495 l 2,60,61
 788 512 788 512 813 512 c 2,62,-1
 1073 512 l 2,63,64
 1097 512 1097 512 1097 487 c 2,65,-1
 1097 161 l 1,50,51
564 221 m 1,66,-1
 432 80 l 2,67,68
 430 77 430 77 430 74 c 2,69,-1
 430 -156 l 1,70,-1
 698 -156 l 1,71,-1
 698 74 l 2,72,73
 697 78 697 78 695 81 c 2,74,-1
 564 221 l 1,66,-1
EndSplineSet
Validated: 1
EndChar

StartChar: w
Encoding: 119 119 51
Width: 1130
Flags: W
VStem: 376 54<548.453 576> 698 53<550.172 576>
LayerCount: 2
Fore
SplineSet
30 487 m 1,0,1
 30 512 30 512 55 512 c 2,2,-1
 315 512 l 2,3,4
 339 512 339 512 357 495 c 2,5,-1
 522 340 l 2,6,7
 531 332 531 332 531 323.5 c 128,-1,8
 531 315 531 315 522 307 c 2,9,-1
 357 153 l 2,10,11
 339 136 339 136 315 136 c 2,12,-1
 55 136 l 2,13,14
 30 136 30 136 30 161 c 2,15,-1
 30 487 l 1,0,1
376 833 m 1,16,17
 376 858 376 858 401 858 c 2,18,-1
 727 858 l 2,19,20
 751 858 751 858 751 833 c 2,21,-1
 751 573 l 2,22,23
 751 548 751 548 735 530 c 2,24,-1
 580 366 l 2,25,26
 573 358 573 358 563 358 c 0,27,28
 554 358 554 358 546 366 c 2,29,-1
 393 530 l 2,30,31
 376 548 376 548 376 573 c 2,32,-1
 376 833 l 1,16,17
751 -185 m 1,33,34
 751 -210 751 -210 727 -210 c 2,35,-1
 401 -210 l 2,36,37
 376 -210 376 -210 376 -185 c 2,38,-1
 376 75 l 2,39,40
 376 100 376 100 393 118 c 2,41,-1
 548 282 l 2,42,43
 554 290 554 290 565 290 c 0,44,45
 574 290 574 290 581 282 c 2,46,-1
 735 118 l 2,47,48
 751 100 751 100 751 75 c 2,49,-1
 751 -185 l 1,33,34
1097 161 m 1,50,51
 1097 136 1097 136 1073 136 c 2,52,-1
 813 136 l 2,53,54
 788 136 788 136 770 153 c 2,55,-1
 606 308 l 2,56,57
 597 316 597 316 597 324.5 c 128,-1,58
 597 333 597 333 606 341 c 2,59,-1
 770 495 l 2,60,61
 788 512 788 512 813 512 c 2,62,-1
 1073 512 l 2,63,64
 1097 512 1097 512 1097 487 c 2,65,-1
 1097 161 l 1,50,51
563 429 m 1,66,-1
 695 570 l 2,67,68
 698 573 698 573 698 576 c 2,69,-1
 698 807 l 1,70,-1
 430 807 l 1,71,-1
 430 576 l 2,72,73
 430 571 430 571 433 568 c 2,74,-1
 563 429 l 1,66,-1
EndSplineSet
Validated: 1
EndChar

StartChar: x
Encoding: 120 120 52
Width: -1610
Flags: W
HStem: -209 206<393 478 699 792 821 1143> 681 176<393 680.027 841 1049.52>
VStem: 244 149<213.27 435.633> 475 181<370.567 589.495> 745 294<364.797 584.311>
LayerCount: 2
Fore
SplineSet
73 590 m 1,0,-1
 55 598 l 1,1,-1
 55 857 l 1,2,-1
 1171 857 l 2,3,4
 1355 857 1355 857 1485 727 c 256,5,6
 1615 597 1615 597 1615 413 c 2,7,-1
 1615 235 l 2,8,9
 1615 52 1615 52 1485 -78 c 0,10,11
 1355 -209 1355 -209 1171 -209 c 2,12,-1
 55 -209 l 1,13,-1
 55 50 l 1,14,-1
 73 59 l 2,15,16
 151 95 151 95 197 167 c 0,17,18
 244 239 244 239 244 324 c 0,19,20
 244 410 244 410 197 482 c 0,21,22
 151 554 151 554 73 590 c 1,0,-1
699 -3 m 1,23,-1
 792 -3 l 1,24,-1
 657 297 l 1,25,26
 699 311 699 311 722 343 c 0,27,28
 745 376 745 376 745 434 c 2,29,-1
 745 529 l 2,30,31
 745 609 745 609 701 645 c 256,32,33
 657 681 657 681 577 681 c 2,34,-1
 393 681 l 1,35,-1
 393 -3 l 1,36,-1
 478 -3 l 1,37,-1
 478 280 l 1,38,-1
 574 280 l 1,39,-1
 699 -3 l 1,23,-1
1143 -3 m 1,40,-1
 1143 71 l 1,41,-1
 911 71 l 1,42,-1
 1055 275 l 2,43,44
 1075 303 1075 303 1087 323 c 0,45,46
 1100 342 1100 342 1107 364 c 0,47,48
 1116 384 1116 384 1120 411 c 0,49,50
 1124 437 1124 437 1124 474 c 2,51,-1
 1124 515 l 2,52,53
 1124 599 1124 599 1078 639 c 0,54,55
 1033 681 1033 681 948 681 c 2,56,-1
 841 681 l 1,57,-1
 841 606 l 1,58,-1
 958 606 l 2,59,60
 995 606 995 606 1017 585 c 0,61,62
 1039 563 1039 563 1039 533 c 2,63,-1
 1039 465 l 2,64,65
 1039 438 1039 438 1037 422 c 0,66,67
 1035 404 1035 404 1029 388 c 0,68,69
 1022 372 1022 372 1010 354 c 0,70,71
 997 335 997 335 978 306 c 2,72,-1
 821 83 l 1,73,-1
 821 -3 l 1,74,-1
 1143 -3 l 1,40,-1
656 425 m 1,75,76
 656 388 656 388 639 370 c 0,77,78
 622 354 622 354 585 354 c 2,79,-1
 475 354 l 1,80,-1
 475 607 l 1,81,-1
 585 607 l 2,82,83
 622 607 622 607 639 590 c 0,84,85
 656 574 656 574 656 537 c 2,86,-1
 656 425 l 1,75,76
EndSplineSet
Validated: 1
EndChar

StartChar: y
Encoding: 121 121 53
Width: -1617
Flags: W
HStem: -209 206<633 935 986 1308> 680 177<633 718 1005 1216.27>
VStem: 50 583<95.0596 553.588> 935 51<-3 72> 1288 134<348.035 435.633>
LayerCount: 2
Fore
SplineSet
1610 598 m 1,0,-1
 1592 590 l 2,1,2
 1515 554 1515 554 1468 482 c 0,3,4
 1422 410 1422 410 1422 324 c 0,5,6
 1422 239 1422 239 1468 167 c 0,7,8
 1515 95 1515 95 1592 59 c 2,9,-1
 1610 50 l 1,10,-1
 1610 -209 l 1,11,-1
 494 -209 l 2,12,13
 311 -209 311 -209 180 -78 c 0,14,15
 50 52 50 52 50 235 c 2,16,-1
 50 413 l 2,17,18
 50 597 50 597 180 727 c 0,19,20
 311 857 311 857 494 857 c 2,21,-1
 1610 857 l 1,22,-1
 1610 598 l 1,0,-1
935 -3 m 1,23,-1
 935 72 l 1,24,-1
 718 72 l 1,25,-1
 718 680 l 1,26,-1
 633 680 l 1,27,-1
 633 -3 l 1,28,-1
 935 -3 l 1,23,-1
1308 -3 m 1,29,-1
 1308 72 l 1,30,-1
 1076 72 l 1,31,-1
 1220 275 l 2,32,33
 1239 302 1239 302 1252 322 c 0,34,35
 1264 342 1264 342 1272 363 c 0,36,37
 1281 384 1281 384 1285 410 c 0,38,39
 1288 436 1288 436 1288 473 c 2,40,-1
 1288 514 l 2,41,42
 1288 597 1288 597 1243 639 c 0,43,44
 1198 680 1198 680 1113 680 c 2,45,-1
 1005 680 l 1,46,-1
 1005 605 l 1,47,-1
 1123 605 l 2,48,49
 1160 605 1160 605 1182 584 c 0,50,51
 1203 562 1203 562 1203 533 c 2,52,-1
 1203 464 l 2,53,54
 1203 438 1203 438 1202 421 c 0,55,56
 1199 403 1199 403 1193 388 c 0,57,58
 1187 371 1187 371 1175 353 c 0,59,60
 1162 334 1162 334 1142 305 c 2,61,-1
 986 83 l 1,62,-1
 986 -3 l 1,63,-1
 1308 -3 l 1,29,-1
EndSplineSet
Validated: 1
EndChar

StartChar: z
Encoding: 122 122 54
Width: 1505
Flags: W
HStem: 131 61<280 302 368 382.812 494.219 509 576 590.812 702.188 717 783 798.781 910.188 925 991 1013 1111 1133 1199 1213.81> 294 61<280 302 368 389 488 509 576 597 696 717 783 798.781 904 925 991 1013 1111 1133 1199 1220> 456 62<280 302 368 382.812 494.219 509 576 590.812 702.188 717 783 798.781 910.188 925 991 1013 1111 1133 1199 1213.81>
VStem: 52 228<192.474 244 272 294 355 377 405 450.906> 389 99<36.1882 51 110 124.781 192 214 272 294 355 377 435 449.812 524.219 539 598 612.812> 597 99<36.1882 51 110 124.781 192 214 272 294 355 377 435 449.812 524.219 539 598 612.812> 805 99<36.1882 51 110 124.781 199.188 214 272 286.812 362.188 377 435 449.812 524.219 539 598 612.812> 1013 98<30 51 110 131 192 214 272 294 355 377 435 456 518 539 598 619> 1220 228<192.474 244 272 294 355 377 405 449.812>
LayerCount: 2
Fore
SplineSet
1133 131 m 1,0,1
 1124 131 1124 131 1118 125 c 0,2,3
 1111 118 1111 118 1111 110 c 2,4,-1
 1111 51 l 2,5,6
 1111 42 1111 42 1118 36 c 0,7,8
 1124 30 1124 30 1133 30 c 2,9,-1
 1199 30 l 2,10,11
 1208 30 1208 30 1214 36 c 256,12,13
 1220 42 1220 42 1220 51 c 2,14,-1
 1220 110 l 2,15,16
 1220 118 1220 118 1214 125 c 0,17,18
 1208 131 1208 131 1199 131 c 2,19,-1
 1133 131 l 1,0,1
925 131 m 1,20,21
 916 131 916 131 910 125 c 0,22,23
 904 118 904 118 904 110 c 2,24,-1
 904 51 l 2,25,26
 904 42 904 42 910 36 c 256,27,28
 916 30 916 30 925 30 c 2,29,-1
 991 30 l 2,30,31
 1000 30 1000 30 1006 36 c 0,32,33
 1013 42 1013 42 1013 51 c 2,34,-1
 1013 110 l 2,35,36
 1013 118 1013 118 1006 125 c 0,37,38
 1000 131 1000 131 991 131 c 2,39,-1
 925 131 l 1,20,21
717 131 m 1,40,41
 708 131 708 131 702 125 c 0,42,43
 696 118 696 118 696 110 c 2,44,-1
 696 51 l 2,45,46
 696 42 696 42 702 36 c 256,47,48
 708 30 708 30 717 30 c 2,49,-1
 783 30 l 2,50,51
 792 30 792 30 799 36 c 0,52,53
 805 42 805 42 805 51 c 2,54,-1
 805 110 l 2,55,56
 805 118 805 118 799 125 c 0,57,58
 792 131 792 131 783 131 c 2,59,-1
 717 131 l 1,40,41
509 131 m 1,60,61
 501 131 501 131 494 125 c 0,62,63
 488 118 488 118 488 110 c 2,64,-1
 488 51 l 2,65,66
 488 42 488 42 494 36 c 0,67,68
 501 30 501 30 509 30 c 2,69,-1
 576 30 l 2,70,71
 585 30 585 30 591 36 c 256,72,73
 597 42 597 42 597 51 c 2,74,-1
 597 110 l 2,75,76
 597 118 597 118 591 125 c 0,77,78
 585 131 585 131 576 131 c 2,79,-1
 509 131 l 1,60,61
302 131 m 1,80,81
 293 131 293 131 287 125 c 0,82,83
 280 118 280 118 280 110 c 2,84,-1
 280 51 l 2,85,86
 280 42 280 42 287 36 c 0,87,88
 293 30 293 30 302 30 c 2,89,-1
 368 30 l 2,90,91
 377 30 377 30 383 36 c 256,92,93
 389 42 389 42 389 51 c 2,94,-1
 389 110 l 2,95,96
 389 118 389 118 383 125 c 0,97,98
 377 131 377 131 368 131 c 2,99,-1
 302 131 l 1,80,81
1133 294 m 1,100,101
 1124 294 1124 294 1118 287 c 0,102,103
 1111 281 1111 281 1111 272 c 2,104,-1
 1111 214 l 2,105,106
 1111 205 1111 205 1118 199 c 0,107,108
 1124 192 1124 192 1133 192 c 2,109,-1
 1199 192 l 2,110,111
 1208 192 1208 192 1214 199 c 0,112,113
 1220 205 1220 205 1220 214 c 2,114,-1
 1220 272 l 2,115,116
 1220 281 1220 281 1214 287 c 0,117,118
 1208 294 1208 294 1199 294 c 2,119,-1
 1133 294 l 1,100,101
925 294 m 1,120,121
 916 294 916 294 910 287 c 0,122,123
 904 281 904 281 904 272 c 2,124,-1
 904 214 l 2,125,126
 904 205 904 205 910 199 c 0,127,128
 916 192 916 192 925 192 c 2,129,-1
 991 192 l 2,130,131
 1000 192 1000 192 1006 199 c 0,132,133
 1013 205 1013 205 1013 214 c 2,134,-1
 1013 272 l 2,135,136
 1013 281 1013 281 1006 287 c 0,137,138
 1000 294 1000 294 991 294 c 2,139,-1
 925 294 l 1,120,121
717 294 m 1,140,141
 708 294 708 294 702 287 c 0,142,143
 696 281 696 281 696 272 c 2,144,-1
 696 214 l 2,145,146
 696 205 696 205 702 199 c 0,147,148
 708 192 708 192 717 192 c 2,149,-1
 783 192 l 2,150,151
 792 192 792 192 799 199 c 0,152,153
 805 205 805 205 805 214 c 2,154,-1
 805 272 l 2,155,156
 805 281 805 281 799 287 c 0,157,158
 792 294 792 294 783 294 c 2,159,-1
 717 294 l 1,140,141
509 294 m 1,160,161
 501 294 501 294 494 287 c 0,162,163
 488 281 488 281 488 272 c 2,164,-1
 488 214 l 2,165,166
 488 205 488 205 494 199 c 0,167,168
 501 192 501 192 509 192 c 2,169,-1
 576 192 l 2,170,171
 585 192 585 192 591 199 c 0,172,173
 597 205 597 205 597 214 c 2,174,-1
 597 272 l 2,175,176
 597 281 597 281 591 287 c 0,177,178
 585 294 585 294 576 294 c 2,179,-1
 509 294 l 1,160,161
302 294 m 1,180,181
 293 294 293 294 287 287 c 0,182,183
 280 281 280 281 280 272 c 2,184,-1
 280 214 l 2,185,186
 280 205 280 205 287 199 c 0,187,188
 293 192 293 192 302 192 c 2,189,-1
 368 192 l 2,190,191
 377 192 377 192 383 199 c 0,192,193
 389 205 389 205 389 214 c 2,194,-1
 389 272 l 2,195,196
 389 281 389 281 383 287 c 0,197,198
 377 294 377 294 368 294 c 2,199,-1
 302 294 l 1,180,181
1133 456 m 1,200,201
 1124 456 1124 456 1118 450 c 0,202,203
 1111 444 1111 444 1111 435 c 2,204,-1
 1111 377 l 2,205,206
 1111 368 1111 368 1118 362 c 0,207,208
 1124 355 1124 355 1133 355 c 2,209,-1
 1199 355 l 2,210,211
 1208 355 1208 355 1214 362 c 0,212,213
 1220 368 1220 368 1220 377 c 2,214,-1
 1220 435 l 2,215,216
 1220 444 1220 444 1214 450 c 256,217,218
 1208 456 1208 456 1199 456 c 2,219,-1
 1133 456 l 1,200,201
925 456 m 1,220,221
 916 456 916 456 910 450 c 256,222,223
 904 444 904 444 904 435 c 2,224,-1
 904 377 l 2,225,226
 904 368 904 368 910 362 c 0,227,228
 916 355 916 355 925 355 c 2,229,-1
 991 355 l 2,230,231
 1000 355 1000 355 1006 362 c 0,232,233
 1013 368 1013 368 1013 377 c 2,234,-1
 1013 435 l 2,235,236
 1013 444 1013 444 1006 450 c 0,237,238
 1000 456 1000 456 991 456 c 2,239,-1
 925 456 l 1,220,221
717 456 m 1,240,241
 708 456 708 456 702 450 c 256,242,243
 696 444 696 444 696 435 c 2,244,-1
 696 377 l 2,245,246
 696 368 696 368 702 362 c 0,247,248
 708 355 708 355 717 355 c 2,249,-1
 783 355 l 2,250,251
 792 355 792 355 799 362 c 0,252,253
 805 368 805 368 805 377 c 2,254,-1
 805 435 l 2,255,256
 805 444 805 444 799 450 c 0,257,258
 792 456 792 456 783 456 c 2,259,-1
 717 456 l 1,240,241
509 456 m 1,260,261
 501 456 501 456 494 450 c 0,262,263
 488 444 488 444 488 435 c 2,264,-1
 488 377 l 2,265,266
 488 368 488 368 494 362 c 0,267,268
 501 355 501 355 509 355 c 2,269,-1
 576 355 l 2,270,271
 585 355 585 355 591 362 c 0,272,273
 597 368 597 368 597 377 c 2,274,-1
 597 435 l 2,275,276
 597 444 597 444 591 450 c 256,277,278
 585 456 585 456 576 456 c 2,279,-1
 509 456 l 1,260,261
302 456 m 1,280,281
 293 456 293 456 287 450 c 0,282,283
 280 444 280 444 280 435 c 2,284,-1
 280 377 l 2,285,286
 280 368 280 368 287 362 c 0,287,288
 293 355 293 355 302 355 c 2,289,-1
 368 355 l 2,290,291
 377 355 377 355 383 362 c 0,292,293
 389 368 389 368 389 377 c 2,294,-1
 389 435 l 2,295,296
 389 444 389 444 383 450 c 256,297,298
 377 456 377 456 368 456 c 2,299,-1
 302 456 l 1,280,281
1199 518 m 1,300,301
 1208 518 1208 518 1214 524 c 0,302,303
 1220 531 1220 531 1220 539 c 2,304,-1
 1220 598 l 2,305,306
 1220 607 1220 607 1214 613 c 256,307,308
 1208 619 1208 619 1199 619 c 2,309,-1
 1133 619 l 2,310,311
 1124 619 1124 619 1118 613 c 0,312,313
 1111 607 1111 607 1111 598 c 2,314,-1
 1111 539 l 2,315,316
 1111 531 1111 531 1118 524 c 0,317,318
 1124 518 1124 518 1133 518 c 2,319,-1
 1199 518 l 1,300,301
991 518 m 1,320,321
 1000 518 1000 518 1006 524 c 0,322,323
 1013 531 1013 531 1013 539 c 2,324,-1
 1013 598 l 2,325,326
 1013 607 1013 607 1006 613 c 0,327,328
 1000 619 1000 619 991 619 c 2,329,-1
 925 619 l 2,330,331
 916 619 916 619 910 613 c 256,332,333
 904 607 904 607 904 598 c 2,334,-1
 904 539 l 2,335,336
 904 531 904 531 910 524 c 0,337,338
 916 518 916 518 925 518 c 2,339,-1
 991 518 l 1,320,321
783 518 m 1,340,341
 792 518 792 518 799 524 c 0,342,343
 805 531 805 531 805 539 c 2,344,-1
 805 598 l 2,345,346
 805 607 805 607 799 613 c 0,347,348
 792 619 792 619 783 619 c 2,349,-1
 717 619 l 2,350,351
 708 619 708 619 702 613 c 256,352,353
 696 607 696 607 696 598 c 2,354,-1
 696 539 l 2,355,356
 696 531 696 531 702 524 c 0,357,358
 708 518 708 518 717 518 c 2,359,-1
 783 518 l 1,340,341
576 518 m 1,360,361
 585 518 585 518 591 524 c 0,362,363
 597 531 597 531 597 539 c 2,364,-1
 597 598 l 2,365,366
 597 607 597 607 591 613 c 256,367,368
 585 619 585 619 576 619 c 2,369,-1
 509 619 l 2,370,371
 501 619 501 619 494 613 c 0,372,373
 488 607 488 607 488 598 c 2,374,-1
 488 539 l 2,375,376
 488 531 488 531 494 524 c 0,377,378
 501 518 501 518 509 518 c 2,379,-1
 576 518 l 1,360,361
368 518 m 1,380,381
 377 518 377 518 383 524 c 0,382,383
 389 531 389 531 389 539 c 2,384,-1
 389 598 l 2,385,386
 389 607 389 607 383 613 c 256,387,388
 377 619 377 619 368 619 c 2,389,-1
 302 619 l 2,390,391
 293 619 293 619 287 613 c 0,392,393
 280 607 280 607 280 598 c 2,394,-1
 280 539 l 2,395,396
 280 531 280 531 287 524 c 0,397,398
 293 518 293 518 302 518 c 2,399,-1
 368 518 l 1,380,381
996 857 m 1,400,401
 1183 857 1183 857 1316 725 c 0,402,403
 1448 592 1448 592 1448 405 c 2,404,-1
 1448 244 l 2,405,406
 1448 57 1448 57 1316 -76 c 0,407,408
 1183 -208 1183 -208 996 -208 c 2,409,-1
 504 -208 l 2,410,411
 317 -208 317 -208 185 -76 c 0,412,413
 52 57 52 57 52 244 c 2,414,-1
 52 405 l 2,415,416
 52 592 52 592 185 725 c 0,417,418
 317 857 317 857 504 857 c 2,419,-1
 996 857 l 1,400,401
1016 -360 m 1,420,-1
 1019 -360 l 2,421,422
 1018 -363 1018 -363 1016 -360 c 1,420,-1
EndSplineSet
Validated: 1
EndChar

